<?xml version="1.0" encoding="us-ascii" standalone="no"?><svg xmlns="http://www.w3.org/2000/svg" xmlns:xlink="http://www.w3.org/1999/xlink" contentStyleType="text/css" height="1255px" preserveAspectRatio="none" style="width:1987px;height:1255px;background:#FFFFFF;" version="1.1" viewBox="0 0 1987 1255" width="1987px" zoomAndPan="magnify"><defs/><g><!--class Role--><g id="elem_Role"><rect codeLine="6" fill="#F1F1F1" height="100.8281" id="Role" rx="2.5" ry="2.5" style="stroke:#181818;stroke-width:0.5;" width="104" x="58.5" y="7"/><ellipse cx="92.85" cy="23" fill="#EB937F" rx="11" ry="11" style="stroke:#181818;stroke-width:1.0;"/><path d="M91.7094,23.7969 L91.7094,26.2969 L96.0375,26.2969 L96.0375,25.375 Q96.0375,24.7656 96.2797,24.5 Q96.5219,24.2344 96.8969,24.2344 Q97.2719,24.2344 97.5063,24.5 Q97.7406,24.7656 97.7406,25.375 L97.7406,28 L89.7406,28 Q89.1156,28 88.8578,27.7656 Q88.6,27.5313 88.6,27.1406 Q88.6,26.7656 88.8656,26.5313 Q89.1313,26.2969 89.7406,26.2969 L90.0063,26.2969 L90.0063,19.6406 L89.7406,19.6406 Q89.1156,19.6406 88.8578,19.4063 Q88.6,19.1719 88.6,18.7813 Q88.6,18.4063 88.8578,18.1719 Q89.1156,17.9375 89.7406,17.9375 L97.3656,17.9375 L97.3656,20.5313 Q97.3656,21.1406 97.1391,21.3984 Q96.9125,21.6563 96.5219,21.6563 Q96.1469,21.6563 95.9125,21.3984 Q95.6781,21.1406 95.6781,20.5313 L95.6781,19.6406 L91.7094,19.6406 L91.7094,22.0938 L93.1938,22.0938 Q93.1938,21.4375 93.3188,21.25 Q93.5844,20.8438 94.0531,20.8438 Q94.4281,20.8438 94.6625,21.1016 Q94.8969,21.3594 94.8969,21.9688 L94.8969,23.9375 Q94.8969,24.4844 94.7719,24.6719 Q94.5063,25.0625 94.0531,25.0625 Q93.5844,25.0625 93.3188,24.6563 Q93.1938,24.4688 93.1938,23.7969 L91.7094,23.7969 Z " fill="#000000"/><text fill="#000000" font-family="sans-serif" font-size="14" lengthAdjust="spacing" textLength="29" x="111.15" y="28.7285">Role</text><line style="stroke:#181818;stroke-width:0.5;" x1="59.5" x2="161.5" y1="39" y2="39"/><text fill="#000000" font-family="sans-serif" font-size="14" lengthAdjust="spacing" textLength="78" x="64.5" y="57.5332">CUSTOMER</text><text fill="#000000" font-family="sans-serif" font-size="14" lengthAdjust="spacing" textLength="67" x="64.5" y="75.1426">DELIVERY</text><text fill="#000000" font-family="sans-serif" font-size="14" lengthAdjust="spacing" textLength="92" x="64.5" y="92.752">RESTAURANT</text><line style="stroke:#181818;stroke-width:0.5;" x1="59.5" x2="161.5" y1="99.8281" y2="99.8281"/></g><!--class PaymentMethod--><g id="elem_PaymentMethod"><rect codeLine="12" fill="#F1F1F1" height="100.8281" id="PaymentMethod" rx="2.5" ry="2.5" style="stroke:#181818;stroke-width:0.5;" width="134" x="197.5" y="7"/><ellipse cx="212.5" cy="23" fill="#EB937F" rx="11" ry="11" style="stroke:#181818;stroke-width:1.0;"/><path d="M211.3594,23.7969 L211.3594,26.2969 L215.6875,26.2969 L215.6875,25.375 Q215.6875,24.7656 215.9297,24.5 Q216.1719,24.2344 216.5469,24.2344 Q216.9219,24.2344 217.1563,24.5 Q217.3906,24.7656 217.3906,25.375 L217.3906,28 L209.3906,28 Q208.7656,28 208.5078,27.7656 Q208.25,27.5313 208.25,27.1406 Q208.25,26.7656 208.5156,26.5313 Q208.7813,26.2969 209.3906,26.2969 L209.6563,26.2969 L209.6563,19.6406 L209.3906,19.6406 Q208.7656,19.6406 208.5078,19.4063 Q208.25,19.1719 208.25,18.7813 Q208.25,18.4063 208.5078,18.1719 Q208.7656,17.9375 209.3906,17.9375 L217.0156,17.9375 L217.0156,20.5313 Q217.0156,21.1406 216.7891,21.3984 Q216.5625,21.6563 216.1719,21.6563 Q215.7969,21.6563 215.5625,21.3984 Q215.3281,21.1406 215.3281,20.5313 L215.3281,19.6406 L211.3594,19.6406 L211.3594,22.0938 L212.8438,22.0938 Q212.8438,21.4375 212.9688,21.25 Q213.2344,20.8438 213.7031,20.8438 Q214.0781,20.8438 214.3125,21.1016 Q214.5469,21.3594 214.5469,21.9688 L214.5469,23.9375 Q214.5469,24.4844 214.4219,24.6719 Q214.1563,25.0625 213.7031,25.0625 Q213.2344,25.0625 212.9688,24.6563 Q212.8438,24.4688 212.8438,23.7969 L211.3594,23.7969 Z " fill="#000000"/><text fill="#000000" font-family="sans-serif" font-size="14" lengthAdjust="spacing" textLength="102" x="226.5" y="28.7285">PaymentMethod</text><line style="stroke:#181818;stroke-width:0.5;" x1="198.5" x2="330.5" y1="39" y2="39"/><text fill="#000000" font-family="sans-serif" font-size="14" lengthAdjust="spacing" textLength="37" x="203.5" y="57.5332">CASH</text><text fill="#000000" font-family="sans-serif" font-size="14" lengthAdjust="spacing" textLength="30" x="203.5" y="75.1426">VISA</text><text fill="#000000" font-family="sans-serif" font-size="14" lengthAdjust="spacing" textLength="56" x="203.5" y="92.752">WALLET</text><line style="stroke:#181818;stroke-width:0.5;" x1="198.5" x2="330.5" y1="99.8281" y2="99.8281"/></g><!--class DatabaseConnection--><g id="elem_DatabaseConnection"><rect codeLine="19" fill="#F1F1F1" height="100.8281" id="DatabaseConnection" rx="2.5" ry="2.5" style="stroke:#181818;stroke-width:0.5;" width="244" x="494.5" y="203"/><ellipse cx="545.75" cy="219" fill="#ADD1B2" rx="11" ry="11" style="stroke:#181818;stroke-width:1.0;"/><path d="M548.5156,214.875 Q548.6719,214.6563 548.8594,214.5469 Q549.0469,214.4375 549.2656,214.4375 Q549.6406,214.4375 549.875,214.6953 Q550.1094,214.9531 550.1094,215.5625 L550.1094,217.0156 Q550.1094,217.625 549.875,217.8906 Q549.6406,218.1563 549.2656,218.1563 Q548.9219,218.1563 548.7188,217.9531 Q548.5156,217.7656 548.4063,217.25 Q548.3594,216.8906 548.1719,216.7031 Q547.8438,216.3281 547.2344,216.1094 Q546.625,215.8906 546,215.8906 Q545.2344,215.8906 544.6016,216.2188 Q543.9688,216.5469 543.4766,217.2969 Q542.9844,218.0469 542.9844,219.0781 L542.9844,220.1719 Q542.9844,221.4063 543.875,222.2266 Q544.7656,223.0469 546.3594,223.0469 Q547.2969,223.0469 547.9531,222.7969 Q548.3438,222.6406 548.7656,222.2031 Q549.0313,221.9375 549.1797,221.8594 Q549.3281,221.7813 549.5313,221.7813 Q549.8594,221.7813 550.1172,222.0391 Q550.375,222.2969 550.375,222.6406 Q550.375,222.9844 550.0313,223.3906 Q549.5313,223.9688 548.7344,224.2969 Q547.6563,224.75 546.3594,224.75 Q544.8438,224.75 543.6406,224.125 Q542.6563,223.625 541.9688,222.5547 Q541.2813,221.4844 541.2813,220.2031 L541.2813,219.0469 Q541.2813,217.7188 541.8984,216.5703 Q542.5156,215.4219 543.6094,214.8047 Q544.7031,214.1875 545.9375,214.1875 Q546.6719,214.1875 547.3203,214.3516 Q547.9688,214.5156 548.5156,214.875 Z " fill="#000000"/><text fill="#000000" font-family="sans-serif" font-size="14" lengthAdjust="spacing" textLength="133" x="566.25" y="224.7285">DatabaseConnection</text><line style="stroke:#181818;stroke-width:0.5;" x1="495.5" x2="737.5" y1="235" y2="235"/><text fill="#000000" font-family="sans-serif" font-size="14" lengthAdjust="spacing" textLength="199" x="500.5" y="253.5332">-instance: DatabaseConnection</text><text fill="#000000" font-family="sans-serif" font-size="14" lengthAdjust="spacing" textLength="156" x="500.5" y="271.1426">-connectionString: String</text><line style="stroke:#181818;stroke-width:0.5;" x1="495.5" x2="737.5" y1="278.2188" y2="278.2188"/><text fill="#000000" font-family="sans-serif" font-size="14" lengthAdjust="spacing" textLength="232" x="500.5" y="296.752">+getInstance(): DatabaseConnection</text></g><!--class User--><g id="elem_User"><rect codeLine="26" fill="#F1F1F1" height="171.2656" id="User" rx="2.5" ry="2.5" style="stroke:#181818;stroke-width:0.5;" width="119" x="792" y="168"/><ellipse cx="832.65" cy="184" fill="#A9DCDF" rx="11" ry="11" style="stroke:#181818;stroke-width:1.0;"/><path d="M834.8375,185.7656 L830.6969,185.7656 L830.275,186.7969 L830.6969,186.7969 Q831.3063,186.7969 831.5719,187.0313 Q831.8375,187.2656 831.8375,187.6563 Q831.8375,188.0313 831.5719,188.2656 Q831.3063,188.5 830.6969,188.5 L828.4,188.5 Q827.7906,188.5 827.5328,188.2656 Q827.275,188.0313 827.275,187.6406 Q827.275,187.2656 827.5484,187.0234 Q827.8219,186.7813 828.4469,186.7969 L831.1188,180.1406 L830.0094,180.1406 Q829.4,180.1406 829.1344,179.9063 Q828.8688,179.6719 828.8688,179.2813 Q828.8688,178.9063 829.1344,178.6719 Q829.4,178.4375 830.0094,178.4375 L833.6813,178.4375 L837.0719,186.7969 Q837.6656,186.7969 837.8531,186.9375 Q838.2438,187.2031 838.2438,187.6563 Q838.2438,188.0313 837.9859,188.2656 Q837.7281,188.5 837.1188,188.5 L834.8219,188.5 Q834.2125,188.5 833.9469,188.2656 Q833.6813,188.0313 833.6813,187.6406 Q833.6813,187.2656 833.9469,187.0313 Q834.2125,186.7969 834.8219,186.7969 L835.2438,186.7969 L834.8375,185.7656 Z M834.1188,184.0625 L832.7594,180.6875 L831.3844,184.0625 L834.1188,184.0625 Z " fill="#000000"/><text fill="#000000" font-family="sans-serif" font-size="14" font-style="italic" lengthAdjust="spacing" textLength="30" x="852.35" y="189.7285">User</text><line style="stroke:#181818;stroke-width:0.5;" x1="793" x2="910" y1="200" y2="200"/><text fill="#000000" font-family="sans-serif" font-size="14" lengthAdjust="spacing" textLength="39" x="798" y="218.5332">-id: int</text><text fill="#000000" font-family="sans-serif" font-size="14" lengthAdjust="spacing" textLength="85" x="798" y="236.1426">-name: String</text><text fill="#000000" font-family="sans-serif" font-size="14" lengthAdjust="spacing" textLength="83" x="798" y="253.752">-email: String</text><text fill="#000000" font-family="sans-serif" font-size="14" lengthAdjust="spacing" textLength="90" x="798" y="271.3613">-phone: String</text><text fill="#000000" font-family="sans-serif" font-size="14" lengthAdjust="spacing" textLength="66" x="798" y="288.9707">-role: Role</text><line style="stroke:#181818;stroke-width:0.5;" x1="793" x2="910" y1="296.0469" y2="296.0469"/><text fill="#000000" font-family="sans-serif" font-size="14" lengthAdjust="spacing" textLength="107" x="798" y="314.5801">+login(): boolean</text><text fill="#000000" font-family="sans-serif" font-size="14" lengthAdjust="spacing" textLength="91" x="798" y="332.1895">+logout(): void</text></g><!--class Customer--><g id="elem_Customer"><rect codeLine="36" fill="#F1F1F1" height="118.4375" id="Customer" rx="2.5" ry="2.5" style="stroke:#181818;stroke-width:0.5;" width="154" x="543.5" y="408"/><ellipse cx="585.95" cy="424" fill="#ADD1B2" rx="11" ry="11" style="stroke:#181818;stroke-width:1.0;"/><path d="M588.7156,419.875 Q588.8719,419.6563 589.0594,419.5469 Q589.2469,419.4375 589.4656,419.4375 Q589.8406,419.4375 590.075,419.6953 Q590.3094,419.9531 590.3094,420.5625 L590.3094,422.0156 Q590.3094,422.625 590.075,422.8906 Q589.8406,423.1563 589.4656,423.1563 Q589.1219,423.1563 588.9188,422.9531 Q588.7156,422.7656 588.6063,422.25 Q588.5594,421.8906 588.3719,421.7031 Q588.0438,421.3281 587.4344,421.1094 Q586.825,420.8906 586.2,420.8906 Q585.4344,420.8906 584.8016,421.2188 Q584.1688,421.5469 583.6766,422.2969 Q583.1844,423.0469 583.1844,424.0781 L583.1844,425.1719 Q583.1844,426.4063 584.075,427.2266 Q584.9656,428.0469 586.5594,428.0469 Q587.4969,428.0469 588.1531,427.7969 Q588.5438,427.6406 588.9656,427.2031 Q589.2313,426.9375 589.3797,426.8594 Q589.5281,426.7813 589.7313,426.7813 Q590.0594,426.7813 590.3172,427.0391 Q590.575,427.2969 590.575,427.6406 Q590.575,427.9844 590.2313,428.3906 Q589.7313,428.9688 588.9344,429.2969 Q587.8563,429.75 586.5594,429.75 Q585.0438,429.75 583.8406,429.125 Q582.8563,428.625 582.1688,427.5547 Q581.4813,426.4844 581.4813,425.2031 L581.4813,424.0469 Q581.4813,422.7188 582.0984,421.5703 Q582.7156,420.4219 583.8094,419.8047 Q584.9031,419.1875 586.1375,419.1875 Q586.8719,419.1875 587.5203,419.3516 Q588.1688,419.5156 588.7156,419.875 Z " fill="#000000"/><text fill="#000000" font-family="sans-serif" font-size="14" lengthAdjust="spacing" textLength="61" x="606.05" y="429.7285">Customer</text><line style="stroke:#181818;stroke-width:0.5;" x1="544.5" x2="696.5" y1="440" y2="440"/><text fill="#000000" font-family="sans-serif" font-size="14" lengthAdjust="spacing" textLength="101" x="549.5" y="458.5332">-address: String</text><text fill="#000000" font-family="sans-serif" font-size="14" lengthAdjust="spacing" textLength="142" x="549.5" y="476.1426">-walletBalance: double</text><line style="stroke:#181818;stroke-width:0.5;" x1="544.5" x2="696.5" y1="483.2188" y2="483.2188"/><text fill="#000000" font-family="sans-serif" font-size="14" lengthAdjust="spacing" textLength="123" x="549.5" y="501.752">+placeOrder(): void</text><text fill="#000000" font-family="sans-serif" font-size="14" lengthAdjust="spacing" textLength="75" x="549.5" y="519.3613">+pay(): void</text></g><!--class Delivery--><g id="elem_Delivery"><rect codeLine="43" fill="#F1F1F1" height="118.4375" id="Delivery" rx="2.5" ry="2.5" style="stroke:#181818;stroke-width:0.5;" width="143" x="780" y="408"/><ellipse cx="822" cy="424" fill="#ADD1B2" rx="11" ry="11" style="stroke:#181818;stroke-width:1.0;"/><path d="M824.7656,419.875 Q824.9219,419.6563 825.1094,419.5469 Q825.2969,419.4375 825.5156,419.4375 Q825.8906,419.4375 826.125,419.6953 Q826.3594,419.9531 826.3594,420.5625 L826.3594,422.0156 Q826.3594,422.625 826.125,422.8906 Q825.8906,423.1563 825.5156,423.1563 Q825.1719,423.1563 824.9688,422.9531 Q824.7656,422.7656 824.6563,422.25 Q824.6094,421.8906 824.4219,421.7031 Q824.0938,421.3281 823.4844,421.1094 Q822.875,420.8906 822.25,420.8906 Q821.4844,420.8906 820.8516,421.2188 Q820.2188,421.5469 819.7266,422.2969 Q819.2344,423.0469 819.2344,424.0781 L819.2344,425.1719 Q819.2344,426.4063 820.125,427.2266 Q821.0156,428.0469 822.6094,428.0469 Q823.5469,428.0469 824.2031,427.7969 Q824.5938,427.6406 825.0156,427.2031 Q825.2813,426.9375 825.4297,426.8594 Q825.5781,426.7813 825.7813,426.7813 Q826.1094,426.7813 826.3672,427.0391 Q826.625,427.2969 826.625,427.6406 Q826.625,427.9844 826.2813,428.3906 Q825.7813,428.9688 824.9844,429.2969 Q823.9063,429.75 822.6094,429.75 Q821.0938,429.75 819.8906,429.125 Q818.9063,428.625 818.2188,427.5547 Q817.5313,426.4844 817.5313,425.2031 L817.5313,424.0469 Q817.5313,422.7188 818.1484,421.5703 Q818.7656,420.4219 819.8594,419.8047 Q820.9531,419.1875 822.1875,419.1875 Q822.9219,419.1875 823.5703,419.3516 Q824.2188,419.5156 824.7656,419.875 Z " fill="#000000"/><text fill="#000000" font-family="sans-serif" font-size="14" lengthAdjust="spacing" textLength="51" x="842" y="429.7285">Delivery</text><line style="stroke:#181818;stroke-width:0.5;" x1="781" x2="922" y1="440" y2="440"/><text fill="#000000" font-family="sans-serif" font-size="14" lengthAdjust="spacing" textLength="126" x="786" y="458.5332">-vehicleType: String</text><text fill="#000000" font-family="sans-serif" font-size="14" lengthAdjust="spacing" textLength="120" x="786" y="476.1426">-available: boolean</text><line style="stroke:#181818;stroke-width:0.5;" x1="781" x2="922" y1="483.2188" y2="483.2188"/><text fill="#000000" font-family="sans-serif" font-size="14" lengthAdjust="spacing" textLength="131" x="786" y="501.752">+acceptOrder(): void</text><text fill="#000000" font-family="sans-serif" font-size="14" lengthAdjust="spacing" textLength="131" x="786" y="519.3613">+deliverOrder(): void</text></g><!--class Restaurant--><g id="elem_Restaurant"><rect codeLine="50" fill="#F1F1F1" height="136.0469" id="Restaurant" rx="2.5" ry="2.5" style="stroke:#181818;stroke-width:0.5;" width="163" x="958" y="399"/><ellipse cx="1000.45" cy="415" fill="#ADD1B2" rx="11" ry="11" style="stroke:#181818;stroke-width:1.0;"/><path d="M1003.2156,410.875 Q1003.3719,410.6563 1003.5594,410.5469 Q1003.7469,410.4375 1003.9656,410.4375 Q1004.3406,410.4375 1004.575,410.6953 Q1004.8094,410.9531 1004.8094,411.5625 L1004.8094,413.0156 Q1004.8094,413.625 1004.575,413.8906 Q1004.3406,414.1563 1003.9656,414.1563 Q1003.6219,414.1563 1003.4188,413.9531 Q1003.2156,413.7656 1003.1063,413.25 Q1003.0594,412.8906 1002.8719,412.7031 Q1002.5438,412.3281 1001.9344,412.1094 Q1001.325,411.8906 1000.7,411.8906 Q999.9344,411.8906 999.3016,412.2188 Q998.6688,412.5469 998.1766,413.2969 Q997.6844,414.0469 997.6844,415.0781 L997.6844,416.1719 Q997.6844,417.4063 998.575,418.2266 Q999.4656,419.0469 1001.0594,419.0469 Q1001.9969,419.0469 1002.6531,418.7969 Q1003.0438,418.6406 1003.4656,418.2031 Q1003.7313,417.9375 1003.8797,417.8594 Q1004.0281,417.7813 1004.2313,417.7813 Q1004.5594,417.7813 1004.8172,418.0391 Q1005.075,418.2969 1005.075,418.6406 Q1005.075,418.9844 1004.7313,419.3906 Q1004.2313,419.9688 1003.4344,420.2969 Q1002.3563,420.75 1001.0594,420.75 Q999.5438,420.75 998.3406,420.125 Q997.3563,419.625 996.6688,418.5547 Q995.9813,417.4844 995.9813,416.2031 L995.9813,415.0469 Q995.9813,413.7188 996.5984,412.5703 Q997.2156,411.4219 998.3094,410.8047 Q999.4031,410.1875 1000.6375,410.1875 Q1001.3719,410.1875 1002.0203,410.3516 Q1002.6688,410.5156 1003.2156,410.875 Z " fill="#000000"/><text fill="#000000" font-family="sans-serif" font-size="14" lengthAdjust="spacing" textLength="70" x="1020.55" y="420.7285">Restaurant</text><line style="stroke:#181818;stroke-width:0.5;" x1="959" x2="1120" y1="431" y2="431"/><text fill="#000000" font-family="sans-serif" font-size="14" lengthAdjust="spacing" textLength="151" x="964" y="449.5332">-restaurantName: String</text><text fill="#000000" font-family="sans-serif" font-size="14" lengthAdjust="spacing" textLength="99" x="964" y="467.1426">-location: String</text><text fill="#000000" font-family="sans-serif" font-size="14" lengthAdjust="spacing" textLength="92" x="964" y="484.752">-rating: double</text><line style="stroke:#181818;stroke-width:0.5;" x1="959" x2="1120" y1="491.8281" y2="491.8281"/><text fill="#000000" font-family="sans-serif" font-size="14" lengthAdjust="spacing" textLength="135" x="964" y="510.3613">+confirmOrder(): void</text><text fill="#000000" font-family="sans-serif" font-size="14" lengthAdjust="spacing" textLength="139" x="964" y="527.9707">+prepareOrder(): void</text></g><!--class UserFactory--><g id="elem_UserFactory"><rect codeLine="62" fill="#F1F1F1" height="83.2188" id="UserFactory" rx="2.5" ry="2.5" style="stroke:#181818;stroke-width:0.5;" width="197" x="613" y="16"/><ellipse cx="668.75" cy="32" fill="#ADD1B2" rx="11" ry="11" style="stroke:#181818;stroke-width:1.0;"/><path d="M671.5156,27.875 Q671.6719,27.6563 671.8594,27.5469 Q672.0469,27.4375 672.2656,27.4375 Q672.6406,27.4375 672.875,27.6953 Q673.1094,27.9531 673.1094,28.5625 L673.1094,30.0156 Q673.1094,30.625 672.875,30.8906 Q672.6406,31.1563 672.2656,31.1563 Q671.9219,31.1563 671.7188,30.9531 Q671.5156,30.7656 671.4063,30.25 Q671.3594,29.8906 671.1719,29.7031 Q670.8438,29.3281 670.2344,29.1094 Q669.625,28.8906 669,28.8906 Q668.2344,28.8906 667.6016,29.2188 Q666.9688,29.5469 666.4766,30.2969 Q665.9844,31.0469 665.9844,32.0781 L665.9844,33.1719 Q665.9844,34.4063 666.875,35.2266 Q667.7656,36.0469 669.3594,36.0469 Q670.2969,36.0469 670.9531,35.7969 Q671.3438,35.6406 671.7656,35.2031 Q672.0313,34.9375 672.1797,34.8594 Q672.3281,34.7813 672.5313,34.7813 Q672.8594,34.7813 673.1172,35.0391 Q673.375,35.2969 673.375,35.6406 Q673.375,35.9844 673.0313,36.3906 Q672.5313,36.9688 671.7344,37.2969 Q670.6563,37.75 669.3594,37.75 Q667.8438,37.75 666.6406,37.125 Q665.6563,36.625 664.9688,35.5547 Q664.2813,34.4844 664.2813,33.2031 L664.2813,32.0469 Q664.2813,30.7188 664.8984,29.5703 Q665.5156,28.4219 666.6094,27.8047 Q667.7031,27.1875 668.9375,27.1875 Q669.6719,27.1875 670.3203,27.3516 Q670.9688,27.5156 671.5156,27.875 Z " fill="#000000"/><text fill="#000000" font-family="sans-serif" font-size="14" lengthAdjust="spacing" textLength="77" x="689.25" y="37.7285">UserFactory</text><line style="stroke:#181818;stroke-width:0.5;" x1="614" x2="809" y1="48" y2="48"/><text fill="#000000" font-family="sans-serif" font-size="14" lengthAdjust="spacing" textLength="142" x="619" y="66.5332">-supportedRoles: Role</text><line style="stroke:#181818;stroke-width:0.5;" x1="614" x2="809" y1="73.6094" y2="73.6094"/><text fill="#000000" font-family="sans-serif" font-size="14" lengthAdjust="spacing" textLength="185" x="619" y="92.1426">+createUser(role: Role): User</text></g><!--class ICart--><g id="elem_ICart"><rect codeLine="70" fill="#F1F1F1" height="100.8281" id="ICart" rx="2.5" ry="2.5" style="stroke:#181818;stroke-width:0.5;" width="137" x="242" y="603.5"/><ellipse cx="290.75" cy="619.5" fill="#B4A7E5" rx="11" ry="11" style="stroke:#181818;stroke-width:1.0;"/><path d="M291.7031,616.1406 L291.7031,622.7969 L293.4219,622.7969 Q294.0313,622.7969 294.2969,623.0313 Q294.5625,623.2656 294.5625,623.6563 Q294.5625,624.0313 294.2969,624.2656 Q294.0313,624.5 293.4219,624.5 L288.2813,624.5 Q287.6719,624.5 287.4063,624.2656 Q287.1406,624.0313 287.1406,623.6406 Q287.1406,623.2656 287.4063,623.0313 Q287.6719,622.7969 288.2813,622.7969 L290,622.7969 L290,616.1406 L288.2813,616.1406 Q287.6719,616.1406 287.4063,615.9063 Q287.1406,615.6719 287.1406,615.2813 Q287.1406,614.9063 287.4063,614.6719 Q287.6719,614.4375 288.2813,614.4375 L293.4219,614.4375 Q294.0313,614.4375 294.2969,614.6719 Q294.5625,614.9063 294.5625,615.2813 Q294.5625,615.6719 294.2969,615.9063 Q294.0313,616.1406 293.4219,616.1406 L291.7031,616.1406 Z " fill="#000000"/><text fill="#000000" font-family="sans-serif" font-size="14" font-style="italic" lengthAdjust="spacing" textLength="31" x="311.25" y="625.2285">ICart</text><line style="stroke:#181818;stroke-width:0.5;" x1="243" x2="378" y1="635.5" y2="635.5"/><line style="stroke:#181818;stroke-width:0.5;" x1="243" x2="378" y1="643.5" y2="643.5"/><text fill="#000000" font-family="sans-serif" font-size="14" lengthAdjust="spacing" textLength="102" x="248" y="662.0332">+addItem(): void</text><text fill="#000000" font-family="sans-serif" font-size="14" lengthAdjust="spacing" textLength="125" x="248" y="679.6426">+removeItem(): void</text><text fill="#000000" font-family="sans-serif" font-size="14" lengthAdjust="spacing" textLength="121" x="248" y="697.252">+getTotal(): double</text></g><!--class Cart--><g id="elem_Cart"><rect codeLine="76" fill="#F1F1F1" height="136.0469" id="Cart" rx="2.5" ry="2.5" style="stroke:#181818;stroke-width:0.5;" width="137" x="172" y="987"/><ellipse cx="222.75" cy="1003" fill="#ADD1B2" rx="11" ry="11" style="stroke:#181818;stroke-width:1.0;"/><path d="M225.5156,998.875 Q225.6719,998.6563 225.8594,998.5469 Q226.0469,998.4375 226.2656,998.4375 Q226.6406,998.4375 226.875,998.6953 Q227.1094,998.9531 227.1094,999.5625 L227.1094,1001.0156 Q227.1094,1001.625 226.875,1001.8906 Q226.6406,1002.1563 226.2656,1002.1563 Q225.9219,1002.1563 225.7188,1001.9531 Q225.5156,1001.7656 225.4063,1001.25 Q225.3594,1000.8906 225.1719,1000.7031 Q224.8438,1000.3281 224.2344,1000.1094 Q223.625,999.8906 223,999.8906 Q222.2344,999.8906 221.6016,1000.2188 Q220.9688,1000.5469 220.4766,1001.2969 Q219.9844,1002.0469 219.9844,1003.0781 L219.9844,1004.1719 Q219.9844,1005.4063 220.875,1006.2266 Q221.7656,1007.0469 223.3594,1007.0469 Q224.2969,1007.0469 224.9531,1006.7969 Q225.3438,1006.6406 225.7656,1006.2031 Q226.0313,1005.9375 226.1797,1005.8594 Q226.3281,1005.7813 226.5313,1005.7813 Q226.8594,1005.7813 227.1172,1006.0391 Q227.375,1006.2969 227.375,1006.6406 Q227.375,1006.9844 227.0313,1007.3906 Q226.5313,1007.9688 225.7344,1008.2969 Q224.6563,1008.75 223.3594,1008.75 Q221.8438,1008.75 220.6406,1008.125 Q219.6563,1007.625 218.9688,1006.5547 Q218.2813,1005.4844 218.2813,1004.2031 L218.2813,1003.0469 Q218.2813,1001.7188 218.8984,1000.5703 Q219.5156,999.4219 220.6094,998.8047 Q221.7031,998.1875 222.9375,998.1875 Q223.6719,998.1875 224.3203,998.3516 Q224.9688,998.5156 225.5156,998.875 Z " fill="#000000"/><text fill="#000000" font-family="sans-serif" font-size="14" lengthAdjust="spacing" textLength="27" x="243.25" y="1008.7285">Cart</text><line style="stroke:#181818;stroke-width:0.5;" x1="173" x2="308" y1="1019" y2="1019"/><text fill="#000000" font-family="sans-serif" font-size="14" lengthAdjust="spacing" textLength="63" x="178" y="1037.5332">-cartId: int</text><text fill="#000000" font-family="sans-serif" font-size="14" lengthAdjust="spacing" textLength="115" x="178" y="1055.1426">-totalPrice: double</text><line style="stroke:#181818;stroke-width:0.5;" x1="173" x2="308" y1="1062.2188" y2="1062.2188"/><text fill="#000000" font-family="sans-serif" font-size="14" lengthAdjust="spacing" textLength="102" x="178" y="1080.752">+addItem(): void</text><text fill="#000000" font-family="sans-serif" font-size="14" lengthAdjust="spacing" textLength="125" x="178" y="1098.3613">+removeItem(): void</text><text fill="#000000" font-family="sans-serif" font-size="14" lengthAdjust="spacing" textLength="121" x="178" y="1115.9707">+getTotal(): double</text></g><!--class CartProxy--><g id="elem_CartProxy"><rect codeLine="84" fill="#F1F1F1" height="136.0469" id="CartProxy" rx="2.5" ry="2.5" style="stroke:#181818;stroke-width:0.5;" width="174" x="223.5" y="782"/><ellipse cx="275.25" cy="798" fill="#ADD1B2" rx="11" ry="11" style="stroke:#181818;stroke-width:1.0;"/><path d="M278.0156,793.875 Q278.1719,793.6563 278.3594,793.5469 Q278.5469,793.4375 278.7656,793.4375 Q279.1406,793.4375 279.375,793.6953 Q279.6094,793.9531 279.6094,794.5625 L279.6094,796.0156 Q279.6094,796.625 279.375,796.8906 Q279.1406,797.1563 278.7656,797.1563 Q278.4219,797.1563 278.2188,796.9531 Q278.0156,796.7656 277.9063,796.25 Q277.8594,795.8906 277.6719,795.7031 Q277.3438,795.3281 276.7344,795.1094 Q276.125,794.8906 275.5,794.8906 Q274.7344,794.8906 274.1016,795.2188 Q273.4688,795.5469 272.9766,796.2969 Q272.4844,797.0469 272.4844,798.0781 L272.4844,799.1719 Q272.4844,800.4063 273.375,801.2266 Q274.2656,802.0469 275.8594,802.0469 Q276.7969,802.0469 277.4531,801.7969 Q277.8438,801.6406 278.2656,801.2031 Q278.5313,800.9375 278.6797,800.8594 Q278.8281,800.7813 279.0313,800.7813 Q279.3594,800.7813 279.6172,801.0391 Q279.875,801.2969 279.875,801.6406 Q279.875,801.9844 279.5313,802.3906 Q279.0313,802.9688 278.2344,803.2969 Q277.1563,803.75 275.8594,803.75 Q274.3438,803.75 273.1406,803.125 Q272.1563,802.625 271.4688,801.5547 Q270.7813,800.4844 270.7813,799.2031 L270.7813,798.0469 Q270.7813,796.7188 271.3984,795.5703 Q272.0156,794.4219 273.1094,793.8047 Q274.2031,793.1875 275.4375,793.1875 Q276.1719,793.1875 276.8203,793.3516 Q277.4688,793.5156 278.0156,793.875 Z " fill="#000000"/><text fill="#000000" font-family="sans-serif" font-size="14" lengthAdjust="spacing" textLength="62" x="295.75" y="803.7285">CartProxy</text><line style="stroke:#181818;stroke-width:0.5;" x1="224.5" x2="396.5" y1="814" y2="814"/><text fill="#000000" font-family="sans-serif" font-size="14" lengthAdjust="spacing" textLength="91" x="229.5" y="832.5332">-realCart: Cart</text><text fill="#000000" font-family="sans-serif" font-size="14" lengthAdjust="spacing" textLength="162" x="229.5" y="850.1426">-isUserLoggedIn: boolean</text><line style="stroke:#181818;stroke-width:0.5;" x1="224.5" x2="396.5" y1="857.2188" y2="857.2188"/><text fill="#000000" font-family="sans-serif" font-size="14" lengthAdjust="spacing" textLength="102" x="229.5" y="875.752">+addItem(): void</text><text fill="#000000" font-family="sans-serif" font-size="14" lengthAdjust="spacing" textLength="125" x="229.5" y="893.3613">+removeItem(): void</text><text fill="#000000" font-family="sans-serif" font-size="14" lengthAdjust="spacing" textLength="121" x="229.5" y="910.9707">+getTotal(): double</text></g><!--class MenuComponent--><g id="elem_MenuComponent"><rect codeLine="97" fill="#F1F1F1" height="100.8281" id="MenuComponent" rx="2.5" ry="2.5" style="stroke:#181818;stroke-width:0.5;" width="141" x="941" y="7"/><ellipse cx="956" cy="23" fill="#A9DCDF" rx="11" ry="11" style="stroke:#181818;stroke-width:1.0;"/><path d="M958.1875,24.7656 L954.0469,24.7656 L953.625,25.7969 L954.0469,25.7969 Q954.6563,25.7969 954.9219,26.0313 Q955.1875,26.2656 955.1875,26.6563 Q955.1875,27.0313 954.9219,27.2656 Q954.6563,27.5 954.0469,27.5 L951.75,27.5 Q951.1406,27.5 950.8828,27.2656 Q950.625,27.0313 950.625,26.6406 Q950.625,26.2656 950.8984,26.0234 Q951.1719,25.7813 951.7969,25.7969 L954.4688,19.1406 L953.3594,19.1406 Q952.75,19.1406 952.4844,18.9063 Q952.2188,18.6719 952.2188,18.2813 Q952.2188,17.9063 952.4844,17.6719 Q952.75,17.4375 953.3594,17.4375 L957.0313,17.4375 L960.4219,25.7969 Q961.0156,25.7969 961.2031,25.9375 Q961.5938,26.2031 961.5938,26.6563 Q961.5938,27.0313 961.3359,27.2656 Q961.0781,27.5 960.4688,27.5 L958.1719,27.5 Q957.5625,27.5 957.2969,27.2656 Q957.0313,27.0313 957.0313,26.6406 Q957.0313,26.2656 957.2969,26.0313 Q957.5625,25.7969 958.1719,25.7969 L958.5938,25.7969 L958.1875,24.7656 Z M957.4688,23.0625 L956.1094,19.6875 L954.7344,23.0625 L957.4688,23.0625 Z " fill="#000000"/><text fill="#000000" font-family="sans-serif" font-size="14" font-style="italic" lengthAdjust="spacing" textLength="109" x="970" y="28.7285">MenuComponent</text><line style="stroke:#181818;stroke-width:0.5;" x1="942" x2="1081" y1="39" y2="39"/><text fill="#000000" font-family="sans-serif" font-size="14" lengthAdjust="spacing" textLength="85" x="947" y="57.5332">-name: String</text><text fill="#000000" font-family="sans-serif" font-size="14" lengthAdjust="spacing" textLength="87" x="947" y="75.1426">-price: double</text><line style="stroke:#181818;stroke-width:0.5;" x1="942" x2="1081" y1="82.2188" y2="82.2188"/><text fill="#000000" font-family="sans-serif" font-size="14" lengthAdjust="spacing" textLength="121" x="947" y="100.752">+getPrice(): double</text></g><!--class Menu--><g id="elem_Menu"><rect codeLine="103" fill="#F1F1F1" height="118.4375" id="Menu" rx="2.5" ry="2.5" style="stroke:#181818;stroke-width:0.5;" width="131" x="946" y="194.5"/><ellipse cx="989.8" cy="210.5" fill="#ADD1B2" rx="11" ry="11" style="stroke:#181818;stroke-width:1.0;"/><path d="M992.5656,206.375 Q992.7219,206.1563 992.9094,206.0469 Q993.0969,205.9375 993.3156,205.9375 Q993.6906,205.9375 993.925,206.1953 Q994.1594,206.4531 994.1594,207.0625 L994.1594,208.5156 Q994.1594,209.125 993.925,209.3906 Q993.6906,209.6563 993.3156,209.6563 Q992.9719,209.6563 992.7688,209.4531 Q992.5656,209.2656 992.4563,208.75 Q992.4094,208.3906 992.2219,208.2031 Q991.8938,207.8281 991.2844,207.6094 Q990.675,207.3906 990.05,207.3906 Q989.2844,207.3906 988.6516,207.7188 Q988.0188,208.0469 987.5266,208.7969 Q987.0344,209.5469 987.0344,210.5781 L987.0344,211.6719 Q987.0344,212.9063 987.925,213.7266 Q988.8156,214.5469 990.4094,214.5469 Q991.3469,214.5469 992.0031,214.2969 Q992.3938,214.1406 992.8156,213.7031 Q993.0813,213.4375 993.2297,213.3594 Q993.3781,213.2813 993.5813,213.2813 Q993.9094,213.2813 994.1672,213.5391 Q994.425,213.7969 994.425,214.1406 Q994.425,214.4844 994.0813,214.8906 Q993.5813,215.4688 992.7844,215.7969 Q991.7063,216.25 990.4094,216.25 Q988.8938,216.25 987.6906,215.625 Q986.7063,215.125 986.0188,214.0547 Q985.3313,212.9844 985.3313,211.7031 L985.3313,210.5469 Q985.3313,209.2188 985.9484,208.0703 Q986.5656,206.9219 987.6594,206.3047 Q988.7531,205.6875 989.9875,205.6875 Q990.7219,205.6875 991.3703,205.8516 Q992.0188,206.0156 992.5656,206.375 Z " fill="#000000"/><text fill="#000000" font-family="sans-serif" font-size="14" lengthAdjust="spacing" textLength="35" x="1010.2" y="216.2285">Menu</text><line style="stroke:#181818;stroke-width:0.5;" x1="947" x2="1076" y1="226.5" y2="226.5"/><text fill="#000000" font-family="sans-serif" font-size="14" lengthAdjust="spacing" textLength="74" x="952" y="245.0332">-menuId: int</text><text fill="#000000" font-family="sans-serif" font-size="14" lengthAdjust="spacing" textLength="119" x="952" y="262.6426">-description: String</text><line style="stroke:#181818;stroke-width:0.5;" x1="947" x2="1076" y1="269.7188" y2="269.7188"/><text fill="#000000" font-family="sans-serif" font-size="14" lengthAdjust="spacing" textLength="76" x="952" y="288.252">+add(): void</text><text fill="#000000" font-family="sans-serif" font-size="14" lengthAdjust="spacing" textLength="99" x="952" y="305.8613">+remove(): void</text></g><!--class FoodItem--><g id="elem_FoodItem"><rect codeLine="110" fill="#F1F1F1" height="100.8281" id="FoodItem" rx="2.5" ry="2.5" style="stroke:#181818;stroke-width:0.5;" width="133" x="1112" y="203"/><ellipse cx="1145.9" cy="219" fill="#ADD1B2" rx="11" ry="11" style="stroke:#181818;stroke-width:1.0;"/><path d="M1148.6656,214.875 Q1148.8219,214.6563 1149.0094,214.5469 Q1149.1969,214.4375 1149.4156,214.4375 Q1149.7906,214.4375 1150.025,214.6953 Q1150.2594,214.9531 1150.2594,215.5625 L1150.2594,217.0156 Q1150.2594,217.625 1150.025,217.8906 Q1149.7906,218.1563 1149.4156,218.1563 Q1149.0719,218.1563 1148.8688,217.9531 Q1148.6656,217.7656 1148.5563,217.25 Q1148.5094,216.8906 1148.3219,216.7031 Q1147.9938,216.3281 1147.3844,216.1094 Q1146.775,215.8906 1146.15,215.8906 Q1145.3844,215.8906 1144.7516,216.2188 Q1144.1188,216.5469 1143.6266,217.2969 Q1143.1344,218.0469 1143.1344,219.0781 L1143.1344,220.1719 Q1143.1344,221.4063 1144.025,222.2266 Q1144.9156,223.0469 1146.5094,223.0469 Q1147.4469,223.0469 1148.1031,222.7969 Q1148.4938,222.6406 1148.9156,222.2031 Q1149.1813,221.9375 1149.3297,221.8594 Q1149.4781,221.7813 1149.6813,221.7813 Q1150.0094,221.7813 1150.2672,222.0391 Q1150.525,222.2969 1150.525,222.6406 Q1150.525,222.9844 1150.1813,223.3906 Q1149.6813,223.9688 1148.8844,224.2969 Q1147.8063,224.75 1146.5094,224.75 Q1144.9938,224.75 1143.7906,224.125 Q1142.8063,223.625 1142.1188,222.5547 Q1141.4313,221.4844 1141.4313,220.2031 L1141.4313,219.0469 Q1141.4313,217.7188 1142.0484,216.5703 Q1142.6656,215.4219 1143.7594,214.8047 Q1144.8531,214.1875 1146.0875,214.1875 Q1146.8219,214.1875 1147.4703,214.3516 Q1148.1188,214.5156 1148.6656,214.875 Z " fill="#000000"/><text fill="#000000" font-family="sans-serif" font-size="14" lengthAdjust="spacing" textLength="59" x="1164.1" y="224.7285">FoodItem</text><line style="stroke:#181818;stroke-width:0.5;" x1="1113" x2="1244" y1="235" y2="235"/><text fill="#000000" font-family="sans-serif" font-size="14" lengthAdjust="spacing" textLength="67" x="1118" y="253.5332">-foodId: int</text><text fill="#000000" font-family="sans-serif" font-size="14" lengthAdjust="spacing" textLength="105" x="1118" y="271.1426">-category: String</text><line style="stroke:#181818;stroke-width:0.5;" x1="1113" x2="1244" y1="278.2188" y2="278.2188"/><text fill="#000000" font-family="sans-serif" font-size="14" lengthAdjust="spacing" textLength="121" x="1118" y="296.752">+getPrice(): double</text></g><!--class Status--><g id="elem_Status"><rect codeLine="123" fill="#F1F1F1" height="83.2188" id="Status" rx="2.5" ry="2.5" style="stroke:#181818;stroke-width:0.5;" width="131" x="1047" y="808.5"/><ellipse cx="1088.55" cy="824.5" fill="#B4A7E5" rx="11" ry="11" style="stroke:#181818;stroke-width:1.0;"/><path d="M1089.5031,821.1406 L1089.5031,827.7969 L1091.2219,827.7969 Q1091.8313,827.7969 1092.0969,828.0313 Q1092.3625,828.2656 1092.3625,828.6563 Q1092.3625,829.0313 1092.0969,829.2656 Q1091.8313,829.5 1091.2219,829.5 L1086.0813,829.5 Q1085.4719,829.5 1085.2063,829.2656 Q1084.9406,829.0313 1084.9406,828.6406 Q1084.9406,828.2656 1085.2063,828.0313 Q1085.4719,827.7969 1086.0813,827.7969 L1087.8,827.7969 L1087.8,821.1406 L1086.0813,821.1406 Q1085.4719,821.1406 1085.2063,820.9063 Q1084.9406,820.6719 1084.9406,820.2813 Q1084.9406,819.9063 1085.2063,819.6719 Q1085.4719,819.4375 1086.0813,819.4375 L1091.2219,819.4375 Q1091.8313,819.4375 1092.0969,819.6719 Q1092.3625,819.9063 1092.3625,820.2813 Q1092.3625,820.6719 1092.0969,820.9063 Q1091.8313,821.1406 1091.2219,821.1406 L1089.5031,821.1406 Z " fill="#000000"/><text fill="#000000" font-family="sans-serif" font-size="14" font-style="italic" lengthAdjust="spacing" textLength="40" x="1108.45" y="830.2285">Status</text><line style="stroke:#181818;stroke-width:0.5;" x1="1048" x2="1177" y1="840.5" y2="840.5"/><line style="stroke:#181818;stroke-width:0.5;" x1="1048" x2="1177" y1="848.5" y2="848.5"/><text fill="#000000" font-family="sans-serif" font-size="14" lengthAdjust="spacing" textLength="78" x="1053" y="867.0332">+next(): void</text><text fill="#000000" font-family="sans-serif" font-size="14" lengthAdjust="spacing" textLength="119" x="1053" y="884.6426">+getName(): String</text></g><!--class OrderStatus--><g id="elem_OrderStatus"><rect codeLine="128" fill="#F1F1F1" height="100.8281" id="OrderStatus" rx="2.5" ry="2.5" style="stroke:#181818;stroke-width:0.5;" width="136" x="951.5" y="1004.5"/><ellipse cx="978.65" cy="1020.5" fill="#A9DCDF" rx="11" ry="11" style="stroke:#181818;stroke-width:1.0;"/><path d="M980.8375,1022.2656 L976.6969,1022.2656 L976.275,1023.2969 L976.6969,1023.2969 Q977.3063,1023.2969 977.5719,1023.5313 Q977.8375,1023.7656 977.8375,1024.1563 Q977.8375,1024.5313 977.5719,1024.7656 Q977.3063,1025 976.6969,1025 L974.4,1025 Q973.7906,1025 973.5328,1024.7656 Q973.275,1024.5313 973.275,1024.1406 Q973.275,1023.7656 973.5484,1023.5234 Q973.8219,1023.2813 974.4469,1023.2969 L977.1188,1016.6406 L976.0094,1016.6406 Q975.4,1016.6406 975.1344,1016.4063 Q974.8688,1016.1719 974.8688,1015.7813 Q974.8688,1015.4063 975.1344,1015.1719 Q975.4,1014.9375 976.0094,1014.9375 L979.6813,1014.9375 L983.0719,1023.2969 Q983.6656,1023.2969 983.8531,1023.4375 Q984.2438,1023.7031 984.2438,1024.1563 Q984.2438,1024.5313 983.9859,1024.7656 Q983.7281,1025 983.1188,1025 L980.8219,1025 Q980.2125,1025 979.9469,1024.7656 Q979.6813,1024.5313 979.6813,1024.1406 Q979.6813,1023.7656 979.9469,1023.5313 Q980.2125,1023.2969 980.8219,1023.2969 L981.2438,1023.2969 L980.8375,1022.2656 Z M980.1188,1020.5625 L978.7594,1017.1875 L977.3844,1020.5625 L980.1188,1020.5625 Z " fill="#000000"/><text fill="#000000" font-family="sans-serif" font-size="14" font-style="italic" lengthAdjust="spacing" textLength="77" x="995.35" y="1026.2285">OrderStatus</text><line style="stroke:#181818;stroke-width:0.5;" x1="952.5" x2="1086.5" y1="1036.5" y2="1036.5"/><text fill="#000000" font-family="sans-serif" font-size="14" lengthAdjust="spacing" textLength="124" x="957.5" y="1055.0332">-statusName: String</text><line style="stroke:#181818;stroke-width:0.5;" x1="952.5" x2="1086.5" y1="1062.1094" y2="1062.1094"/><text fill="#000000" font-family="sans-serif" font-size="14" lengthAdjust="spacing" textLength="78" x="957.5" y="1080.6426">+next(): void</text><text fill="#000000" font-family="sans-serif" font-size="14" lengthAdjust="spacing" textLength="119" x="957.5" y="1098.252">+getName(): String</text></g><!--class Placed--><g id="elem_Placed"><rect codeLine="134" fill="#F1F1F1" height="65.6094" id="Placed" rx="2.5" ry="2.5" style="stroke:#181818;stroke-width:0.5;" width="135" x="497" y="1183"/><ellipse cx="539" cy="1199" fill="#ADD1B2" rx="11" ry="11" style="stroke:#181818;stroke-width:1.0;"/><path d="M541.7656,1194.875 Q541.9219,1194.6563 542.1094,1194.5469 Q542.2969,1194.4375 542.5156,1194.4375 Q542.8906,1194.4375 543.125,1194.6953 Q543.3594,1194.9531 543.3594,1195.5625 L543.3594,1197.0156 Q543.3594,1197.625 543.125,1197.8906 Q542.8906,1198.1563 542.5156,1198.1563 Q542.1719,1198.1563 541.9688,1197.9531 Q541.7656,1197.7656 541.6563,1197.25 Q541.6094,1196.8906 541.4219,1196.7031 Q541.0938,1196.3281 540.4844,1196.1094 Q539.875,1195.8906 539.25,1195.8906 Q538.4844,1195.8906 537.8516,1196.2188 Q537.2188,1196.5469 536.7266,1197.2969 Q536.2344,1198.0469 536.2344,1199.0781 L536.2344,1200.1719 Q536.2344,1201.4063 537.125,1202.2266 Q538.0156,1203.0469 539.6094,1203.0469 Q540.5469,1203.0469 541.2031,1202.7969 Q541.5938,1202.6406 542.0156,1202.2031 Q542.2813,1201.9375 542.4297,1201.8594 Q542.5781,1201.7813 542.7813,1201.7813 Q543.1094,1201.7813 543.3672,1202.0391 Q543.625,1202.2969 543.625,1202.6406 Q543.625,1202.9844 543.2813,1203.3906 Q542.7813,1203.9688 541.9844,1204.2969 Q540.9063,1204.75 539.6094,1204.75 Q538.0938,1204.75 536.8906,1204.125 Q535.9063,1203.625 535.2188,1202.5547 Q534.5313,1201.4844 534.5313,1200.2031 L534.5313,1199.0469 Q534.5313,1197.7188 535.1484,1196.5703 Q535.7656,1195.4219 536.8594,1194.8047 Q537.9531,1194.1875 539.1875,1194.1875 Q539.9219,1194.1875 540.5703,1194.3516 Q541.2188,1194.5156 541.7656,1194.875 Z " fill="#000000"/><text fill="#000000" font-family="sans-serif" font-size="14" lengthAdjust="spacing" textLength="43" x="559" y="1204.7285">Placed</text><line style="stroke:#181818;stroke-width:0.5;" x1="498" x2="631" y1="1215" y2="1215"/><text fill="#000000" font-family="sans-serif" font-size="14" lengthAdjust="spacing" textLength="123" x="503" y="1233.5332">-placedTime: String</text><line style="stroke:#181818;stroke-width:0.5;" x1="498" x2="631" y1="1240.6094" y2="1240.6094"/></g><!--class Confirmed--><g id="elem_Confirmed"><rect codeLine="138" fill="#F1F1F1" height="65.6094" id="Confirmed" rx="2.5" ry="2.5" style="stroke:#181818;stroke-width:0.5;" width="155" x="667" y="1183"/><ellipse cx="708.1" cy="1199" fill="#ADD1B2" rx="11" ry="11" style="stroke:#181818;stroke-width:1.0;"/><path d="M710.8656,1194.875 Q711.0219,1194.6563 711.2094,1194.5469 Q711.3969,1194.4375 711.6156,1194.4375 Q711.9906,1194.4375 712.225,1194.6953 Q712.4594,1194.9531 712.4594,1195.5625 L712.4594,1197.0156 Q712.4594,1197.625 712.225,1197.8906 Q711.9906,1198.1563 711.6156,1198.1563 Q711.2719,1198.1563 711.0688,1197.9531 Q710.8656,1197.7656 710.7563,1197.25 Q710.7094,1196.8906 710.5219,1196.7031 Q710.1938,1196.3281 709.5844,1196.1094 Q708.975,1195.8906 708.35,1195.8906 Q707.5844,1195.8906 706.9516,1196.2188 Q706.3188,1196.5469 705.8266,1197.2969 Q705.3344,1198.0469 705.3344,1199.0781 L705.3344,1200.1719 Q705.3344,1201.4063 706.225,1202.2266 Q707.1156,1203.0469 708.7094,1203.0469 Q709.6469,1203.0469 710.3031,1202.7969 Q710.6938,1202.6406 711.1156,1202.2031 Q711.3813,1201.9375 711.5297,1201.8594 Q711.6781,1201.7813 711.8813,1201.7813 Q712.2094,1201.7813 712.4672,1202.0391 Q712.725,1202.2969 712.725,1202.6406 Q712.725,1202.9844 712.3813,1203.3906 Q711.8813,1203.9688 711.0844,1204.2969 Q710.0063,1204.75 708.7094,1204.75 Q707.1938,1204.75 705.9906,1204.125 Q705.0063,1203.625 704.3188,1202.5547 Q703.6313,1201.4844 703.6313,1200.2031 L703.6313,1199.0469 Q703.6313,1197.7188 704.2484,1196.5703 Q704.8656,1195.4219 705.9594,1194.8047 Q707.0531,1194.1875 708.2875,1194.1875 Q709.0219,1194.1875 709.6703,1194.3516 Q710.3188,1194.5156 710.8656,1194.875 Z " fill="#000000"/><text fill="#000000" font-family="sans-serif" font-size="14" lengthAdjust="spacing" textLength="65" x="727.9" y="1204.7285">Confirmed</text><line style="stroke:#181818;stroke-width:0.5;" x1="668" x2="821" y1="1215" y2="1215"/><text fill="#000000" font-family="sans-serif" font-size="14" lengthAdjust="spacing" textLength="143" x="673" y="1233.5332">-confirmedTime: String</text><line style="stroke:#181818;stroke-width:0.5;" x1="668" x2="821" y1="1240.6094" y2="1240.6094"/></g><!--class Preparing--><g id="elem_Preparing"><rect codeLine="142" fill="#F1F1F1" height="65.6094" id="Preparing" rx="2.5" ry="2.5" style="stroke:#181818;stroke-width:0.5;" width="144" x="857.5" y="1183"/><ellipse cx="895" cy="1199" fill="#ADD1B2" rx="11" ry="11" style="stroke:#181818;stroke-width:1.0;"/><path d="M897.7656,1194.875 Q897.9219,1194.6563 898.1094,1194.5469 Q898.2969,1194.4375 898.5156,1194.4375 Q898.8906,1194.4375 899.125,1194.6953 Q899.3594,1194.9531 899.3594,1195.5625 L899.3594,1197.0156 Q899.3594,1197.625 899.125,1197.8906 Q898.8906,1198.1563 898.5156,1198.1563 Q898.1719,1198.1563 897.9688,1197.9531 Q897.7656,1197.7656 897.6563,1197.25 Q897.6094,1196.8906 897.4219,1196.7031 Q897.0938,1196.3281 896.4844,1196.1094 Q895.875,1195.8906 895.25,1195.8906 Q894.4844,1195.8906 893.8516,1196.2188 Q893.2188,1196.5469 892.7266,1197.2969 Q892.2344,1198.0469 892.2344,1199.0781 L892.2344,1200.1719 Q892.2344,1201.4063 893.125,1202.2266 Q894.0156,1203.0469 895.6094,1203.0469 Q896.5469,1203.0469 897.2031,1202.7969 Q897.5938,1202.6406 898.0156,1202.2031 Q898.2813,1201.9375 898.4297,1201.8594 Q898.5781,1201.7813 898.7813,1201.7813 Q899.1094,1201.7813 899.3672,1202.0391 Q899.625,1202.2969 899.625,1202.6406 Q899.625,1202.9844 899.2813,1203.3906 Q898.7813,1203.9688 897.9844,1204.2969 Q896.9063,1204.75 895.6094,1204.75 Q894.0938,1204.75 892.8906,1204.125 Q891.9063,1203.625 891.2188,1202.5547 Q890.5313,1201.4844 890.5313,1200.2031 L890.5313,1199.0469 Q890.5313,1197.7188 891.1484,1196.5703 Q891.7656,1195.4219 892.8594,1194.8047 Q893.9531,1194.1875 895.1875,1194.1875 Q895.9219,1194.1875 896.5703,1194.3516 Q897.2188,1194.5156 897.7656,1194.875 Z " fill="#000000"/><text fill="#000000" font-family="sans-serif" font-size="14" lengthAdjust="spacing" textLength="62" x="914" y="1204.7285">Preparing</text><line style="stroke:#181818;stroke-width:0.5;" x1="858.5" x2="1000.5" y1="1215" y2="1215"/><text fill="#000000" font-family="sans-serif" font-size="14" lengthAdjust="spacing" textLength="132" x="863.5" y="1233.5332">-preparationTime: int</text><line style="stroke:#181818;stroke-width:0.5;" x1="858.5" x2="1000.5" y1="1240.6094" y2="1240.6094"/></g><!--class ReadyForDelivery--><g id="elem_ReadyForDelivery"><rect codeLine="146" fill="#F1F1F1" height="65.6094" id="ReadyForDelivery" rx="2.5" ry="2.5" style="stroke:#181818;stroke-width:0.5;" width="146" x="1036.5" y="1183"/><ellipse cx="1051.5" cy="1199" fill="#ADD1B2" rx="11" ry="11" style="stroke:#181818;stroke-width:1.0;"/><path d="M1054.2656,1194.875 Q1054.4219,1194.6563 1054.6094,1194.5469 Q1054.7969,1194.4375 1055.0156,1194.4375 Q1055.3906,1194.4375 1055.625,1194.6953 Q1055.8594,1194.9531 1055.8594,1195.5625 L1055.8594,1197.0156 Q1055.8594,1197.625 1055.625,1197.8906 Q1055.3906,1198.1563 1055.0156,1198.1563 Q1054.6719,1198.1563 1054.4688,1197.9531 Q1054.2656,1197.7656 1054.1563,1197.25 Q1054.1094,1196.8906 1053.9219,1196.7031 Q1053.5938,1196.3281 1052.9844,1196.1094 Q1052.375,1195.8906 1051.75,1195.8906 Q1050.9844,1195.8906 1050.3516,1196.2188 Q1049.7188,1196.5469 1049.2266,1197.2969 Q1048.7344,1198.0469 1048.7344,1199.0781 L1048.7344,1200.1719 Q1048.7344,1201.4063 1049.625,1202.2266 Q1050.5156,1203.0469 1052.1094,1203.0469 Q1053.0469,1203.0469 1053.7031,1202.7969 Q1054.0938,1202.6406 1054.5156,1202.2031 Q1054.7813,1201.9375 1054.9297,1201.8594 Q1055.0781,1201.7813 1055.2813,1201.7813 Q1055.6094,1201.7813 1055.8672,1202.0391 Q1056.125,1202.2969 1056.125,1202.6406 Q1056.125,1202.9844 1055.7813,1203.3906 Q1055.2813,1203.9688 1054.4844,1204.2969 Q1053.4063,1204.75 1052.1094,1204.75 Q1050.5938,1204.75 1049.3906,1204.125 Q1048.4063,1203.625 1047.7188,1202.5547 Q1047.0313,1201.4844 1047.0313,1200.2031 L1047.0313,1199.0469 Q1047.0313,1197.7188 1047.6484,1196.5703 Q1048.2656,1195.4219 1049.3594,1194.8047 Q1050.4531,1194.1875 1051.6875,1194.1875 Q1052.4219,1194.1875 1053.0703,1194.3516 Q1053.7188,1194.5156 1054.2656,1194.875 Z " fill="#000000"/><text fill="#000000" font-family="sans-serif" font-size="14" lengthAdjust="spacing" textLength="114" x="1065.5" y="1204.7285">ReadyForDelivery</text><line style="stroke:#181818;stroke-width:0.5;" x1="1037.5" x2="1181.5" y1="1215" y2="1215"/><text fill="#000000" font-family="sans-serif" font-size="14" lengthAdjust="spacing" textLength="117" x="1042.5" y="1233.5332">-readyTime: String</text><line style="stroke:#181818;stroke-width:0.5;" x1="1037.5" x2="1181.5" y1="1240.6094" y2="1240.6094"/></g><!--class OutForDelivery--><g id="elem_OutForDelivery"><rect codeLine="150" fill="#F1F1F1" height="65.6094" id="OutForDelivery" rx="2.5" ry="2.5" style="stroke:#181818;stroke-width:0.5;" width="172" x="1217.5" y="1183"/><ellipse cx="1252.3" cy="1199" fill="#ADD1B2" rx="11" ry="11" style="stroke:#181818;stroke-width:1.0;"/><path d="M1255.0656,1194.875 Q1255.2219,1194.6563 1255.4094,1194.5469 Q1255.5969,1194.4375 1255.8156,1194.4375 Q1256.1906,1194.4375 1256.425,1194.6953 Q1256.6594,1194.9531 1256.6594,1195.5625 L1256.6594,1197.0156 Q1256.6594,1197.625 1256.425,1197.8906 Q1256.1906,1198.1563 1255.8156,1198.1563 Q1255.4719,1198.1563 1255.2688,1197.9531 Q1255.0656,1197.7656 1254.9563,1197.25 Q1254.9094,1196.8906 1254.7219,1196.7031 Q1254.3938,1196.3281 1253.7844,1196.1094 Q1253.175,1195.8906 1252.55,1195.8906 Q1251.7844,1195.8906 1251.1516,1196.2188 Q1250.5188,1196.5469 1250.0266,1197.2969 Q1249.5344,1198.0469 1249.5344,1199.0781 L1249.5344,1200.1719 Q1249.5344,1201.4063 1250.425,1202.2266 Q1251.3156,1203.0469 1252.9094,1203.0469 Q1253.8469,1203.0469 1254.5031,1202.7969 Q1254.8938,1202.6406 1255.3156,1202.2031 Q1255.5813,1201.9375 1255.7297,1201.8594 Q1255.8781,1201.7813 1256.0813,1201.7813 Q1256.4094,1201.7813 1256.6672,1202.0391 Q1256.925,1202.2969 1256.925,1202.6406 Q1256.925,1202.9844 1256.5813,1203.3906 Q1256.0813,1203.9688 1255.2844,1204.2969 Q1254.2063,1204.75 1252.9094,1204.75 Q1251.3938,1204.75 1250.1906,1204.125 Q1249.2063,1203.625 1248.5188,1202.5547 Q1247.8313,1201.4844 1247.8313,1200.2031 L1247.8313,1199.0469 Q1247.8313,1197.7188 1248.4484,1196.5703 Q1249.0656,1195.4219 1250.1594,1194.8047 Q1251.2531,1194.1875 1252.4875,1194.1875 Q1253.2219,1194.1875 1253.8703,1194.3516 Q1254.5188,1194.5156 1255.0656,1194.875 Z " fill="#000000"/><text fill="#000000" font-family="sans-serif" font-size="14" lengthAdjust="spacing" textLength="96" x="1270.7" y="1204.7285">OutForDelivery</text><line style="stroke:#181818;stroke-width:0.5;" x1="1218.5" x2="1388.5" y1="1215" y2="1215"/><text fill="#000000" font-family="sans-serif" font-size="14" lengthAdjust="spacing" textLength="160" x="1223.5" y="1233.5332">-startDeliveryTime: String</text><line style="stroke:#181818;stroke-width:0.5;" x1="1218.5" x2="1388.5" y1="1240.6094" y2="1240.6094"/></g><!--class Delivered--><g id="elem_Delivered"><rect codeLine="154" fill="#F1F1F1" height="65.6094" id="Delivered" rx="2.5" ry="2.5" style="stroke:#181818;stroke-width:0.5;" width="151" x="1425" y="1183"/><ellipse cx="1466.55" cy="1199" fill="#ADD1B2" rx="11" ry="11" style="stroke:#181818;stroke-width:1.0;"/><path d="M1469.3156,1194.875 Q1469.4719,1194.6563 1469.6594,1194.5469 Q1469.8469,1194.4375 1470.0656,1194.4375 Q1470.4406,1194.4375 1470.675,1194.6953 Q1470.9094,1194.9531 1470.9094,1195.5625 L1470.9094,1197.0156 Q1470.9094,1197.625 1470.675,1197.8906 Q1470.4406,1198.1563 1470.0656,1198.1563 Q1469.7219,1198.1563 1469.5188,1197.9531 Q1469.3156,1197.7656 1469.2063,1197.25 Q1469.1594,1196.8906 1468.9719,1196.7031 Q1468.6438,1196.3281 1468.0344,1196.1094 Q1467.425,1195.8906 1466.8,1195.8906 Q1466.0344,1195.8906 1465.4016,1196.2188 Q1464.7688,1196.5469 1464.2766,1197.2969 Q1463.7844,1198.0469 1463.7844,1199.0781 L1463.7844,1200.1719 Q1463.7844,1201.4063 1464.675,1202.2266 Q1465.5656,1203.0469 1467.1594,1203.0469 Q1468.0969,1203.0469 1468.7531,1202.7969 Q1469.1438,1202.6406 1469.5656,1202.2031 Q1469.8313,1201.9375 1469.9797,1201.8594 Q1470.1281,1201.7813 1470.3313,1201.7813 Q1470.6594,1201.7813 1470.9172,1202.0391 Q1471.175,1202.2969 1471.175,1202.6406 Q1471.175,1202.9844 1470.8313,1203.3906 Q1470.3313,1203.9688 1469.5344,1204.2969 Q1468.4563,1204.75 1467.1594,1204.75 Q1465.6438,1204.75 1464.4406,1204.125 Q1463.4563,1203.625 1462.7688,1202.5547 Q1462.0813,1201.4844 1462.0813,1200.2031 L1462.0813,1199.0469 Q1462.0813,1197.7188 1462.6984,1196.5703 Q1463.3156,1195.4219 1464.4094,1194.8047 Q1465.5031,1194.1875 1466.7375,1194.1875 Q1467.4719,1194.1875 1468.1203,1194.3516 Q1468.7688,1194.5156 1469.3156,1194.875 Z " fill="#000000"/><text fill="#000000" font-family="sans-serif" font-size="14" lengthAdjust="spacing" textLength="60" x="1486.45" y="1204.7285">Delivered</text><line style="stroke:#181818;stroke-width:0.5;" x1="1426" x2="1575" y1="1215" y2="1215"/><text fill="#000000" font-family="sans-serif" font-size="14" lengthAdjust="spacing" textLength="139" x="1431" y="1233.5332">-deliveredTime: String</text><line style="stroke:#181818;stroke-width:0.5;" x1="1426" x2="1575" y1="1240.6094" y2="1240.6094"/></g><!--class StatusFactory--><g id="elem_StatusFactory"><rect codeLine="166" fill="#F1F1F1" height="65.6094" id="StatusFactory" rx="2.5" ry="2.5" style="stroke:#181818;stroke-width:0.5;" width="207" x="7" y="220.5"/><ellipse cx="62.25" cy="236.5" fill="#ADD1B2" rx="11" ry="11" style="stroke:#181818;stroke-width:1.0;"/><path d="M65.0156,232.375 Q65.1719,232.1563 65.3594,232.0469 Q65.5469,231.9375 65.7656,231.9375 Q66.1406,231.9375 66.375,232.1953 Q66.6094,232.4531 66.6094,233.0625 L66.6094,234.5156 Q66.6094,235.125 66.375,235.3906 Q66.1406,235.6563 65.7656,235.6563 Q65.4219,235.6563 65.2188,235.4531 Q65.0156,235.2656 64.9063,234.75 Q64.8594,234.3906 64.6719,234.2031 Q64.3438,233.8281 63.7344,233.6094 Q63.125,233.3906 62.5,233.3906 Q61.7344,233.3906 61.1016,233.7188 Q60.4688,234.0469 59.9766,234.7969 Q59.4844,235.5469 59.4844,236.5781 L59.4844,237.6719 Q59.4844,238.9063 60.375,239.7266 Q61.2656,240.5469 62.8594,240.5469 Q63.7969,240.5469 64.4531,240.2969 Q64.8438,240.1406 65.2656,239.7031 Q65.5313,239.4375 65.6797,239.3594 Q65.8281,239.2813 66.0313,239.2813 Q66.3594,239.2813 66.6172,239.5391 Q66.875,239.7969 66.875,240.1406 Q66.875,240.4844 66.5313,240.8906 Q66.0313,241.4688 65.2344,241.7969 Q64.1563,242.25 62.8594,242.25 Q61.3438,242.25 60.1406,241.625 Q59.1563,241.125 58.4688,240.0547 Q57.7813,238.9844 57.7813,237.7031 L57.7813,236.5469 Q57.7813,235.2188 58.3984,234.0703 Q59.0156,232.9219 60.1094,232.3047 Q61.2031,231.6875 62.4375,231.6875 Q63.1719,231.6875 63.8203,231.8516 Q64.4688,232.0156 65.0156,232.375 Z " fill="#000000"/><text fill="#000000" font-family="sans-serif" font-size="14" lengthAdjust="spacing" textLength="88" x="82.75" y="242.2285">StatusFactory</text><line style="stroke:#181818;stroke-width:0.5;" x1="8" x2="213" y1="252.5" y2="252.5"/><line style="stroke:#181818;stroke-width:0.5;" x1="8" x2="213" y1="260.5" y2="260.5"/><text fill="#000000" font-family="sans-serif" font-size="14" lengthAdjust="spacing" textLength="195" x="13" y="279.0332">+getInitialStatus(): OrderStatus</text></g><!--class Payment--><g id="elem_Payment"><rect codeLine="171" fill="#F1F1F1" height="65.6094" id="Payment" rx="2.5" ry="2.5" style="stroke:#181818;stroke-width:0.5;" width="210" x="249.5" y="220.5"/><ellipse cx="322.75" cy="236.5" fill="#B4A7E5" rx="11" ry="11" style="stroke:#181818;stroke-width:1.0;"/><path d="M323.7031,233.1406 L323.7031,239.7969 L325.4219,239.7969 Q326.0313,239.7969 326.2969,240.0313 Q326.5625,240.2656 326.5625,240.6563 Q326.5625,241.0313 326.2969,241.2656 Q326.0313,241.5 325.4219,241.5 L320.2813,241.5 Q319.6719,241.5 319.4063,241.2656 Q319.1406,241.0313 319.1406,240.6406 Q319.1406,240.2656 319.4063,240.0313 Q319.6719,239.7969 320.2813,239.7969 L322,239.7969 L322,233.1406 L320.2813,233.1406 Q319.6719,233.1406 319.4063,232.9063 Q319.1406,232.6719 319.1406,232.2813 Q319.1406,231.9063 319.4063,231.6719 Q319.6719,231.4375 320.2813,231.4375 L325.4219,231.4375 Q326.0313,231.4375 326.2969,231.6719 Q326.5625,231.9063 326.5625,232.2813 Q326.5625,232.6719 326.2969,232.9063 Q326.0313,233.1406 325.4219,233.1406 L323.7031,233.1406 Z " fill="#000000"/><text fill="#000000" font-family="sans-serif" font-size="14" font-style="italic" lengthAdjust="spacing" textLength="55" x="343.25" y="242.2285">Payment</text><line style="stroke:#181818;stroke-width:0.5;" x1="250.5" x2="458.5" y1="252.5" y2="252.5"/><line style="stroke:#181818;stroke-width:0.5;" x1="250.5" x2="458.5" y1="260.5" y2="260.5"/><text fill="#000000" font-family="sans-serif" font-size="14" lengthAdjust="spacing" textLength="198" x="255.5" y="279.0332">+pay(amount: double): boolean</text></g><!--class CashPayment--><g id="elem_CashPayment"><rect codeLine="175" fill="#F1F1F1" height="83.2188" id="CashPayment" rx="2.5" ry="2.5" style="stroke:#181818;stroke-width:0.5;" width="210" x="1280.5" y="212"/><ellipse cx="1337.25" cy="228" fill="#ADD1B2" rx="11" ry="11" style="stroke:#181818;stroke-width:1.0;"/><path d="M1340.0156,223.875 Q1340.1719,223.6563 1340.3594,223.5469 Q1340.5469,223.4375 1340.7656,223.4375 Q1341.1406,223.4375 1341.375,223.6953 Q1341.6094,223.9531 1341.6094,224.5625 L1341.6094,226.0156 Q1341.6094,226.625 1341.375,226.8906 Q1341.1406,227.1563 1340.7656,227.1563 Q1340.4219,227.1563 1340.2188,226.9531 Q1340.0156,226.7656 1339.9063,226.25 Q1339.8594,225.8906 1339.6719,225.7031 Q1339.3438,225.3281 1338.7344,225.1094 Q1338.125,224.8906 1337.5,224.8906 Q1336.7344,224.8906 1336.1016,225.2188 Q1335.4688,225.5469 1334.9766,226.2969 Q1334.4844,227.0469 1334.4844,228.0781 L1334.4844,229.1719 Q1334.4844,230.4063 1335.375,231.2266 Q1336.2656,232.0469 1337.8594,232.0469 Q1338.7969,232.0469 1339.4531,231.7969 Q1339.8438,231.6406 1340.2656,231.2031 Q1340.5313,230.9375 1340.6797,230.8594 Q1340.8281,230.7813 1341.0313,230.7813 Q1341.3594,230.7813 1341.6172,231.0391 Q1341.875,231.2969 1341.875,231.6406 Q1341.875,231.9844 1341.5313,232.3906 Q1341.0313,232.9688 1340.2344,233.2969 Q1339.1563,233.75 1337.8594,233.75 Q1336.3438,233.75 1335.1406,233.125 Q1334.1563,232.625 1333.4688,231.5547 Q1332.7813,230.4844 1332.7813,229.2031 L1332.7813,228.0469 Q1332.7813,226.7188 1333.3984,225.5703 Q1334.0156,224.4219 1335.1094,223.8047 Q1336.2031,223.1875 1337.4375,223.1875 Q1338.1719,223.1875 1338.8203,223.3516 Q1339.4688,223.5156 1340.0156,223.875 Z " fill="#000000"/><text fill="#000000" font-family="sans-serif" font-size="14" lengthAdjust="spacing" textLength="88" x="1357.75" y="233.7285">CashPayment</text><line style="stroke:#181818;stroke-width:0.5;" x1="1281.5" x2="1489.5" y1="244" y2="244"/><text fill="#000000" font-family="sans-serif" font-size="14" lengthAdjust="spacing" textLength="158" x="1286.5" y="262.5332">-receivedAmount: double</text><line style="stroke:#181818;stroke-width:0.5;" x1="1281.5" x2="1489.5" y1="269.6094" y2="269.6094"/><text fill="#000000" font-family="sans-serif" font-size="14" lengthAdjust="spacing" textLength="198" x="1286.5" y="288.1426">+pay(amount: double): boolean</text></g><!--class VisaPayment--><g id="elem_VisaPayment"><rect codeLine="180" fill="#F1F1F1" height="100.8281" id="VisaPayment" rx="2.5" ry="2.5" style="stroke:#181818;stroke-width:0.5;" width="210" x="1525.5" y="203"/><ellipse cx="1585.25" cy="219" fill="#ADD1B2" rx="11" ry="11" style="stroke:#181818;stroke-width:1.0;"/><path d="M1588.0156,214.875 Q1588.1719,214.6563 1588.3594,214.5469 Q1588.5469,214.4375 1588.7656,214.4375 Q1589.1406,214.4375 1589.375,214.6953 Q1589.6094,214.9531 1589.6094,215.5625 L1589.6094,217.0156 Q1589.6094,217.625 1589.375,217.8906 Q1589.1406,218.1563 1588.7656,218.1563 Q1588.4219,218.1563 1588.2188,217.9531 Q1588.0156,217.7656 1587.9063,217.25 Q1587.8594,216.8906 1587.6719,216.7031 Q1587.3438,216.3281 1586.7344,216.1094 Q1586.125,215.8906 1585.5,215.8906 Q1584.7344,215.8906 1584.1016,216.2188 Q1583.4688,216.5469 1582.9766,217.2969 Q1582.4844,218.0469 1582.4844,219.0781 L1582.4844,220.1719 Q1582.4844,221.4063 1583.375,222.2266 Q1584.2656,223.0469 1585.8594,223.0469 Q1586.7969,223.0469 1587.4531,222.7969 Q1587.8438,222.6406 1588.2656,222.2031 Q1588.5313,221.9375 1588.6797,221.8594 Q1588.8281,221.7813 1589.0313,221.7813 Q1589.3594,221.7813 1589.6172,222.0391 Q1589.875,222.2969 1589.875,222.6406 Q1589.875,222.9844 1589.5313,223.3906 Q1589.0313,223.9688 1588.2344,224.2969 Q1587.1563,224.75 1585.8594,224.75 Q1584.3438,224.75 1583.1406,224.125 Q1582.1563,223.625 1581.4688,222.5547 Q1580.7813,221.4844 1580.7813,220.2031 L1580.7813,219.0469 Q1580.7813,217.7188 1581.3984,216.5703 Q1582.0156,215.4219 1583.1094,214.8047 Q1584.2031,214.1875 1585.4375,214.1875 Q1586.1719,214.1875 1586.8203,214.3516 Q1587.4688,214.5156 1588.0156,214.875 Z " fill="#000000"/><text fill="#000000" font-family="sans-serif" font-size="14" lengthAdjust="spacing" textLength="82" x="1605.75" y="224.7285">VisaPayment</text><line style="stroke:#181818;stroke-width:0.5;" x1="1526.5" x2="1734.5" y1="235" y2="235"/><text fill="#000000" font-family="sans-serif" font-size="14" lengthAdjust="spacing" textLength="127" x="1531.5" y="253.5332">-cardNumber: String</text><text fill="#000000" font-family="sans-serif" font-size="14" lengthAdjust="spacing" textLength="117" x="1531.5" y="271.1426">-expiryDate: String</text><line style="stroke:#181818;stroke-width:0.5;" x1="1526.5" x2="1734.5" y1="278.2188" y2="278.2188"/><text fill="#000000" font-family="sans-serif" font-size="14" lengthAdjust="spacing" textLength="198" x="1531.5" y="296.752">+pay(amount: double): boolean</text></g><!--class WalletPayment--><g id="elem_WalletPayment"><rect codeLine="186" fill="#F1F1F1" height="100.8281" id="WalletPayment" rx="2.5" ry="2.5" style="stroke:#181818;stroke-width:0.5;" width="210" x="1770.5" y="203"/><ellipse cx="1824.25" cy="219" fill="#ADD1B2" rx="11" ry="11" style="stroke:#181818;stroke-width:1.0;"/><path d="M1827.0156,214.875 Q1827.1719,214.6563 1827.3594,214.5469 Q1827.5469,214.4375 1827.7656,214.4375 Q1828.1406,214.4375 1828.375,214.6953 Q1828.6094,214.9531 1828.6094,215.5625 L1828.6094,217.0156 Q1828.6094,217.625 1828.375,217.8906 Q1828.1406,218.1563 1827.7656,218.1563 Q1827.4219,218.1563 1827.2188,217.9531 Q1827.0156,217.7656 1826.9063,217.25 Q1826.8594,216.8906 1826.6719,216.7031 Q1826.3438,216.3281 1825.7344,216.1094 Q1825.125,215.8906 1824.5,215.8906 Q1823.7344,215.8906 1823.1016,216.2188 Q1822.4688,216.5469 1821.9766,217.2969 Q1821.4844,218.0469 1821.4844,219.0781 L1821.4844,220.1719 Q1821.4844,221.4063 1822.375,222.2266 Q1823.2656,223.0469 1824.8594,223.0469 Q1825.7969,223.0469 1826.4531,222.7969 Q1826.8438,222.6406 1827.2656,222.2031 Q1827.5313,221.9375 1827.6797,221.8594 Q1827.8281,221.7813 1828.0313,221.7813 Q1828.3594,221.7813 1828.6172,222.0391 Q1828.875,222.2969 1828.875,222.6406 Q1828.875,222.9844 1828.5313,223.3906 Q1828.0313,223.9688 1827.2344,224.2969 Q1826.1563,224.75 1824.8594,224.75 Q1823.3438,224.75 1822.1406,224.125 Q1821.1563,223.625 1820.4688,222.5547 Q1819.7813,221.4844 1819.7813,220.2031 L1819.7813,219.0469 Q1819.7813,217.7188 1820.3984,216.5703 Q1821.0156,215.4219 1822.1094,214.8047 Q1823.2031,214.1875 1824.4375,214.1875 Q1825.1719,214.1875 1825.8203,214.3516 Q1826.4688,214.5156 1827.0156,214.875 Z " fill="#000000"/><text fill="#000000" font-family="sans-serif" font-size="14" lengthAdjust="spacing" textLength="94" x="1844.75" y="224.7285">WalletPayment</text><line style="stroke:#181818;stroke-width:0.5;" x1="1771.5" x2="1979.5" y1="235" y2="235"/><text fill="#000000" font-family="sans-serif" font-size="14" lengthAdjust="spacing" textLength="74" x="1776.5" y="253.5332">-walletId: int</text><text fill="#000000" font-family="sans-serif" font-size="14" lengthAdjust="spacing" textLength="106" x="1776.5" y="271.1426">-balance: double</text><line style="stroke:#181818;stroke-width:0.5;" x1="1771.5" x2="1979.5" y1="278.2188" y2="278.2188"/><text fill="#000000" font-family="sans-serif" font-size="14" lengthAdjust="spacing" textLength="198" x="1776.5" y="296.752">+pay(amount: double): boolean</text></g><!--class PaymentAdapter--><g id="elem_PaymentAdapter"><rect fill="#F1F1F1" height="48" id="PaymentAdapter" rx="2.5" ry="2.5" style="stroke:#181818;stroke-width:0.5;" width="137" x="1562" y="33.5"/><ellipse cx="1577" cy="49.5" fill="#ADD1B2" rx="11" ry="11" style="stroke:#181818;stroke-width:1.0;"/><path d="M1579.7656,45.375 Q1579.9219,45.1563 1580.1094,45.0469 Q1580.2969,44.9375 1580.5156,44.9375 Q1580.8906,44.9375 1581.125,45.1953 Q1581.3594,45.4531 1581.3594,46.0625 L1581.3594,47.5156 Q1581.3594,48.125 1581.125,48.3906 Q1580.8906,48.6563 1580.5156,48.6563 Q1580.1719,48.6563 1579.9688,48.4531 Q1579.7656,48.2656 1579.6563,47.75 Q1579.6094,47.3906 1579.4219,47.2031 Q1579.0938,46.8281 1578.4844,46.6094 Q1577.875,46.3906 1577.25,46.3906 Q1576.4844,46.3906 1575.8516,46.7188 Q1575.2188,47.0469 1574.7266,47.7969 Q1574.2344,48.5469 1574.2344,49.5781 L1574.2344,50.6719 Q1574.2344,51.9063 1575.125,52.7266 Q1576.0156,53.5469 1577.6094,53.5469 Q1578.5469,53.5469 1579.2031,53.2969 Q1579.5938,53.1406 1580.0156,52.7031 Q1580.2813,52.4375 1580.4297,52.3594 Q1580.5781,52.2813 1580.7813,52.2813 Q1581.1094,52.2813 1581.3672,52.5391 Q1581.625,52.7969 1581.625,53.1406 Q1581.625,53.4844 1581.2813,53.8906 Q1580.7813,54.4688 1579.9844,54.7969 Q1578.9063,55.25 1577.6094,55.25 Q1576.0938,55.25 1574.8906,54.625 Q1573.9063,54.125 1573.2188,53.0547 Q1572.5313,51.9844 1572.5313,50.7031 L1572.5313,49.5469 Q1572.5313,48.2188 1573.1484,47.0703 Q1573.7656,45.9219 1574.8594,45.3047 Q1575.9531,44.6875 1577.1875,44.6875 Q1577.9219,44.6875 1578.5703,44.8516 Q1579.2188,45.0156 1579.7656,45.375 Z " fill="#000000"/><text fill="#000000" font-family="sans-serif" font-size="14" lengthAdjust="spacing" textLength="105" x="1591" y="55.2285">PaymentAdapter</text><line style="stroke:#181818;stroke-width:0.5;" x1="1563" x2="1698" y1="65.5" y2="65.5"/><line style="stroke:#181818;stroke-width:0.5;" x1="1563" x2="1698" y1="73.5" y2="73.5"/></g><!--class PaymentFactory--><g id="elem_PaymentFactory"><rect codeLine="196" fill="#F1F1F1" height="65.6094" id="PaymentFactory" rx="2.5" ry="2.5" style="stroke:#181818;stroke-width:0.5;" width="375" x="433" y="817"/><ellipse cx="564.75" cy="833" fill="#ADD1B2" rx="11" ry="11" style="stroke:#181818;stroke-width:1.0;"/><path d="M567.5156,828.875 Q567.6719,828.6563 567.8594,828.5469 Q568.0469,828.4375 568.2656,828.4375 Q568.6406,828.4375 568.875,828.6953 Q569.1094,828.9531 569.1094,829.5625 L569.1094,831.0156 Q569.1094,831.625 568.875,831.8906 Q568.6406,832.1563 568.2656,832.1563 Q567.9219,832.1563 567.7188,831.9531 Q567.5156,831.7656 567.4063,831.25 Q567.3594,830.8906 567.1719,830.7031 Q566.8438,830.3281 566.2344,830.1094 Q565.625,829.8906 565,829.8906 Q564.2344,829.8906 563.6016,830.2188 Q562.9688,830.5469 562.4766,831.2969 Q561.9844,832.0469 561.9844,833.0781 L561.9844,834.1719 Q561.9844,835.4063 562.875,836.2266 Q563.7656,837.0469 565.3594,837.0469 Q566.2969,837.0469 566.9531,836.7969 Q567.3438,836.6406 567.7656,836.2031 Q568.0313,835.9375 568.1797,835.8594 Q568.3281,835.7813 568.5313,835.7813 Q568.8594,835.7813 569.1172,836.0391 Q569.375,836.2969 569.375,836.6406 Q569.375,836.9844 569.0313,837.3906 Q568.5313,837.9688 567.7344,838.2969 Q566.6563,838.75 565.3594,838.75 Q563.8438,838.75 562.6406,838.125 Q561.6563,837.625 560.9688,836.5547 Q560.2813,835.4844 560.2813,834.2031 L560.2813,833.0469 Q560.2813,831.7188 560.8984,830.5703 Q561.5156,829.4219 562.6094,828.8047 Q563.7031,828.1875 564.9375,828.1875 Q565.6719,828.1875 566.3203,828.3516 Q566.9688,828.5156 567.5156,828.875 Z " fill="#000000"/><text fill="#000000" font-family="sans-serif" font-size="14" lengthAdjust="spacing" textLength="103" x="585.25" y="838.7285">PaymentFactory</text><line style="stroke:#181818;stroke-width:0.5;" x1="434" x2="807" y1="849" y2="849"/><line style="stroke:#181818;stroke-width:0.5;" x1="434" x2="807" y1="857" y2="857"/><text fill="#000000" font-family="sans-serif" font-size="14" lengthAdjust="spacing" textLength="363" x="439" y="875.5332">+getPayment(method: PaymentMethod): PaymentAdapter</text></g><!--class OrderFacade--><g id="elem_OrderFacade"><rect codeLine="202" fill="#F1F1F1" height="118.4375" id="OrderFacade" rx="2.5" ry="2.5" style="stroke:#181818;stroke-width:0.5;" width="230" x="505.5" y="595"/><ellipse cx="573.75" cy="611" fill="#ADD1B2" rx="11" ry="11" style="stroke:#181818;stroke-width:1.0;"/><path d="M576.5156,606.875 Q576.6719,606.6563 576.8594,606.5469 Q577.0469,606.4375 577.2656,606.4375 Q577.6406,606.4375 577.875,606.6953 Q578.1094,606.9531 578.1094,607.5625 L578.1094,609.0156 Q578.1094,609.625 577.875,609.8906 Q577.6406,610.1563 577.2656,610.1563 Q576.9219,610.1563 576.7188,609.9531 Q576.5156,609.7656 576.4063,609.25 Q576.3594,608.8906 576.1719,608.7031 Q575.8438,608.3281 575.2344,608.1094 Q574.625,607.8906 574,607.8906 Q573.2344,607.8906 572.6016,608.2188 Q571.9688,608.5469 571.4766,609.2969 Q570.9844,610.0469 570.9844,611.0781 L570.9844,612.1719 Q570.9844,613.4063 571.875,614.2266 Q572.7656,615.0469 574.3594,615.0469 Q575.2969,615.0469 575.9531,614.7969 Q576.3438,614.6406 576.7656,614.2031 Q577.0313,613.9375 577.1797,613.8594 Q577.3281,613.7813 577.5313,613.7813 Q577.8594,613.7813 578.1172,614.0391 Q578.375,614.2969 578.375,614.6406 Q578.375,614.9844 578.0313,615.3906 Q577.5313,615.9688 576.7344,616.2969 Q575.6563,616.75 574.3594,616.75 Q572.8438,616.75 571.6406,616.125 Q570.6563,615.625 569.9688,614.5547 Q569.2813,613.4844 569.2813,612.2031 L569.2813,611.0469 Q569.2813,609.7188 569.8984,608.5703 Q570.5156,607.4219 571.6094,606.8047 Q572.7031,606.1875 573.9375,606.1875 Q574.6719,606.1875 575.3203,606.3516 Q575.9688,606.5156 576.5156,606.875 Z " fill="#000000"/><text fill="#000000" font-family="sans-serif" font-size="14" lengthAdjust="spacing" textLength="85" x="594.25" y="616.7285">OrderFacade</text><line style="stroke:#181818;stroke-width:0.5;" x1="506.5" x2="734.5" y1="627" y2="627"/><text fill="#000000" font-family="sans-serif" font-size="14" lengthAdjust="spacing" textLength="218" x="511.5" y="645.5332">-paymentFactory: PaymentFactory</text><text fill="#000000" font-family="sans-serif" font-size="14" lengthAdjust="spacing" textLength="187" x="511.5" y="663.1426">-statusFactory: StatusFactory</text><line style="stroke:#181818;stroke-width:0.5;" x1="506.5" x2="734.5" y1="670.2188" y2="670.2188"/><text fill="#000000" font-family="sans-serif" font-size="14" lengthAdjust="spacing" textLength="123" x="511.5" y="688.752">+placeOrder(): void</text><text fill="#000000" font-family="sans-serif" font-size="14" lengthAdjust="spacing" textLength="130" x="511.5" y="706.3613">+cancelOrder(): void</text></g><!--class CustomerOrder--><g id="elem_CustomerOrder"><rect codeLine="210" fill="#F1F1F1" height="153.6563" id="CustomerOrder" rx="2.5" ry="2.5" style="stroke:#181818;stroke-width:0.5;" width="169" x="843" y="773"/><ellipse cx="875.55" cy="789" fill="#ADD1B2" rx="11" ry="11" style="stroke:#181818;stroke-width:1.0;"/><path d="M878.3156,784.875 Q878.4719,784.6563 878.6594,784.5469 Q878.8469,784.4375 879.0656,784.4375 Q879.4406,784.4375 879.675,784.6953 Q879.9094,784.9531 879.9094,785.5625 L879.9094,787.0156 Q879.9094,787.625 879.675,787.8906 Q879.4406,788.1563 879.0656,788.1563 Q878.7219,788.1563 878.5188,787.9531 Q878.3156,787.7656 878.2063,787.25 Q878.1594,786.8906 877.9719,786.7031 Q877.6438,786.3281 877.0344,786.1094 Q876.425,785.8906 875.8,785.8906 Q875.0344,785.8906 874.4016,786.2188 Q873.7688,786.5469 873.2766,787.2969 Q872.7844,788.0469 872.7844,789.0781 L872.7844,790.1719 Q872.7844,791.4063 873.675,792.2266 Q874.5656,793.0469 876.1594,793.0469 Q877.0969,793.0469 877.7531,792.7969 Q878.1438,792.6406 878.5656,792.2031 Q878.8313,791.9375 878.9797,791.8594 Q879.1281,791.7813 879.3313,791.7813 Q879.6594,791.7813 879.9172,792.0391 Q880.175,792.2969 880.175,792.6406 Q880.175,792.9844 879.8313,793.3906 Q879.3313,793.9688 878.5344,794.2969 Q877.4563,794.75 876.1594,794.75 Q874.6438,794.75 873.4406,794.125 Q872.4563,793.625 871.7688,792.5547 Q871.0813,791.4844 871.0813,790.2031 L871.0813,789.0469 Q871.0813,787.7188 871.6984,786.5703 Q872.3156,785.4219 873.4094,784.8047 Q874.5031,784.1875 875.7375,784.1875 Q876.4719,784.1875 877.1203,784.3516 Q877.7688,784.5156 878.3156,784.875 Z " fill="#000000"/><text fill="#000000" font-family="sans-serif" font-size="14" lengthAdjust="spacing" textLength="98" x="893.45" y="794.7285">CustomerOrder</text><line style="stroke:#181818;stroke-width:0.5;" x1="844" x2="1011" y1="805" y2="805"/><text fill="#000000" font-family="sans-serif" font-size="14" lengthAdjust="spacing" textLength="73" x="849" y="823.5332">-orderId: int</text><text fill="#000000" font-family="sans-serif" font-size="14" lengthAdjust="spacing" textLength="114" x="849" y="841.1426">-orderDate: String</text><text fill="#000000" font-family="sans-serif" font-size="14" lengthAdjust="spacing" textLength="131" x="849" y="858.752">-totalAmount: double</text><text fill="#000000" font-family="sans-serif" font-size="14" lengthAdjust="spacing" textLength="128" x="849" y="876.3613">-status: OrderStatus</text><line style="stroke:#181818;stroke-width:0.5;" x1="844" x2="1011" y1="883.4375" y2="883.4375"/><text fill="#000000" font-family="sans-serif" font-size="14" lengthAdjust="spacing" textLength="157" x="849" y="901.9707">+calculateTotal(): double</text><text fill="#000000" font-family="sans-serif" font-size="14" lengthAdjust="spacing" textLength="139" x="849" y="919.5801">+changeStatus(): void</text></g><!--class RestaurantOrder--><g id="elem_RestaurantOrder"><rect codeLine="219" fill="#F1F1F1" height="83.2188" id="RestaurantOrder" rx="2.5" ry="2.5" style="stroke:#181818;stroke-width:0.5;" width="139" x="970" y="612.5"/><ellipse cx="985" cy="628.5" fill="#ADD1B2" rx="11" ry="11" style="stroke:#181818;stroke-width:1.0;"/><path d="M987.7656,624.375 Q987.9219,624.1563 988.1094,624.0469 Q988.2969,623.9375 988.5156,623.9375 Q988.8906,623.9375 989.125,624.1953 Q989.3594,624.4531 989.3594,625.0625 L989.3594,626.5156 Q989.3594,627.125 989.125,627.3906 Q988.8906,627.6563 988.5156,627.6563 Q988.1719,627.6563 987.9688,627.4531 Q987.7656,627.2656 987.6563,626.75 Q987.6094,626.3906 987.4219,626.2031 Q987.0938,625.8281 986.4844,625.6094 Q985.875,625.3906 985.25,625.3906 Q984.4844,625.3906 983.8516,625.7188 Q983.2188,626.0469 982.7266,626.7969 Q982.2344,627.5469 982.2344,628.5781 L982.2344,629.6719 Q982.2344,630.9063 983.125,631.7266 Q984.0156,632.5469 985.6094,632.5469 Q986.5469,632.5469 987.2031,632.2969 Q987.5938,632.1406 988.0156,631.7031 Q988.2813,631.4375 988.4297,631.3594 Q988.5781,631.2813 988.7813,631.2813 Q989.1094,631.2813 989.3672,631.5391 Q989.625,631.7969 989.625,632.1406 Q989.625,632.4844 989.2813,632.8906 Q988.7813,633.4688 987.9844,633.7969 Q986.9063,634.25 985.6094,634.25 Q984.0938,634.25 982.8906,633.625 Q981.9063,633.125 981.2188,632.0547 Q980.5313,630.9844 980.5313,629.7031 L980.5313,628.5469 Q980.5313,627.2188 981.1484,626.0703 Q981.7656,624.9219 982.8594,624.3047 Q983.9531,623.6875 985.1875,623.6875 Q985.9219,623.6875 986.5703,623.8516 Q987.2188,624.0156 987.7656,624.375 Z " fill="#000000"/><text fill="#000000" font-family="sans-serif" font-size="14" lengthAdjust="spacing" textLength="107" x="999" y="634.2285">RestaurantOrder</text><line style="stroke:#181818;stroke-width:0.5;" x1="971" x2="1108" y1="644.5" y2="644.5"/><text fill="#000000" font-family="sans-serif" font-size="14" lengthAdjust="spacing" textLength="104" x="976" y="663.0332">-restaurantId: int</text><line style="stroke:#181818;stroke-width:0.5;" x1="971" x2="1108" y1="670.1094" y2="670.1094"/><text fill="#000000" font-family="sans-serif" font-size="14" lengthAdjust="spacing" textLength="102" x="976" y="688.6426">+prepare(): void</text></g><!--class DeliveryOrder--><g id="elem_DeliveryOrder"><rect codeLine="224" fill="#F1F1F1" height="83.2188" id="DeliveryOrder" rx="2.5" ry="2.5" style="stroke:#181818;stroke-width:0.5;" width="163" x="771" y="612.5"/><ellipse cx="805.35" cy="628.5" fill="#ADD1B2" rx="11" ry="11" style="stroke:#181818;stroke-width:1.0;"/><path d="M808.1156,624.375 Q808.2719,624.1563 808.4594,624.0469 Q808.6469,623.9375 808.8656,623.9375 Q809.2406,623.9375 809.475,624.1953 Q809.7094,624.4531 809.7094,625.0625 L809.7094,626.5156 Q809.7094,627.125 809.475,627.3906 Q809.2406,627.6563 808.8656,627.6563 Q808.5219,627.6563 808.3188,627.4531 Q808.1156,627.2656 808.0063,626.75 Q807.9594,626.3906 807.7719,626.2031 Q807.4438,625.8281 806.8344,625.6094 Q806.225,625.3906 805.6,625.3906 Q804.8344,625.3906 804.2016,625.7188 Q803.5688,626.0469 803.0766,626.7969 Q802.5844,627.5469 802.5844,628.5781 L802.5844,629.6719 Q802.5844,630.9063 803.475,631.7266 Q804.3656,632.5469 805.9594,632.5469 Q806.8969,632.5469 807.5531,632.2969 Q807.9438,632.1406 808.3656,631.7031 Q808.6313,631.4375 808.7797,631.3594 Q808.9281,631.2813 809.1313,631.2813 Q809.4594,631.2813 809.7172,631.5391 Q809.975,631.7969 809.975,632.1406 Q809.975,632.4844 809.6313,632.8906 Q809.1313,633.4688 808.3344,633.7969 Q807.2563,634.25 805.9594,634.25 Q804.4438,634.25 803.2406,633.625 Q802.2563,633.125 801.5688,632.0547 Q800.8813,630.9844 800.8813,629.7031 L800.8813,628.5469 Q800.8813,627.2188 801.4984,626.0703 Q802.1156,624.9219 803.2094,624.3047 Q804.3031,623.6875 805.5375,623.6875 Q806.2719,623.6875 806.9203,623.8516 Q807.5688,624.0156 808.1156,624.375 Z " fill="#000000"/><text fill="#000000" font-family="sans-serif" font-size="14" lengthAdjust="spacing" textLength="88" x="823.65" y="634.2285">DeliveryOrder</text><line style="stroke:#181818;stroke-width:0.5;" x1="772" x2="933" y1="644.5" y2="644.5"/><text fill="#000000" font-family="sans-serif" font-size="14" lengthAdjust="spacing" textLength="151" x="777" y="663.0332">-deliveryAddress: String</text><line style="stroke:#181818;stroke-width:0.5;" x1="772" x2="933" y1="670.1094" y2="670.1094"/><text fill="#000000" font-family="sans-serif" font-size="14" lengthAdjust="spacing" textLength="94" x="777" y="688.6426">+deliver(): void</text></g><!--reverse link User to Customer--><g id="link_User_Customer"><path codeLine="58" d="M779.3085,333.7219 C773.2185,339.9819 779.58,333.23 773.5,339 C748.71,362.52 720.21,386.84 694.58,407.83 " fill="none" id="User-backto-Customer" style="stroke:#181818;stroke-width:1.0;"/><polygon fill="none" points="791.86,320.82,775.0078,329.5381,783.6091,337.9057,791.86,320.82" style="stroke:#181818;stroke-width:1.0;"/></g><!--reverse link User to Delivery--><g id="link_User_Delivery"><path codeLine="59" d="M851.5,357 C851.5,380.13 851.5,386.67 851.5,407.95 " fill="none" id="User-backto-Delivery" style="stroke:#181818;stroke-width:1.0;"/><polygon fill="none" points="851.5,339,845.5,357,857.5,357,851.5,339" style="stroke:#181818;stroke-width:1.0;"/></g><!--reverse link User to Restaurant--><g id="link_User_Restaurant"><path codeLine="60" d="M923.1992,335.1628 C945.1392,359.8428 957.99,374.3 979.91,398.96 " fill="none" id="User-backto-Restaurant" style="stroke:#181818;stroke-width:1.0;"/><polygon fill="none" points="911.24,321.71,918.715,339.1492,927.6835,331.1764,911.24,321.71" style="stroke:#181818;stroke-width:1.0;"/></g><!--link UserFactory to User--><g id="link_UserFactory_User"><path codeLine="67" d="M740.85,99.17 C755.68,119.72 770.7287,140.5747 788.3887,165.0447 " fill="none" id="UserFactory-to-User" style="stroke:#181818;stroke-width:1.0;"/><polygon fill="#181818" points="791.9,169.91,789.8766,160.2712,788.9739,165.8556,783.3896,164.9529,791.9,169.91" style="stroke:#181818;stroke-width:1.0;"/></g><!--reverse link ICart to Cart--><g id="link_ICart_Cart"><path codeLine="92" d="M239.1757,717.7858 C220.7757,736.9858 215.2,747.5 205.5,773 C178.97,842.73 196.19,928.53 214.62,986.84 " fill="none" id="ICart-backto-Cart" style="stroke:#181818;stroke-width:1.0;stroke-dasharray:7.0,7.0;"/><polygon fill="none" points="251.63,704.79,234.8438,713.6344,243.5076,721.9372,251.63,704.79" style="stroke:#181818;stroke-width:1.0;"/></g><!--reverse link ICart to CartProxy--><g id="link_ICart_CartProxy"><path codeLine="93" d="M310.5,722.71 C310.5,746.17 310.5,756.52 310.5,781.86 " fill="none" id="ICart-backto-CartProxy" style="stroke:#181818;stroke-width:1.0;stroke-dasharray:7.0,7.0;"/><polygon fill="none" points="310.5,704.71,304.5,722.71,316.5,722.71,310.5,704.71" style="stroke:#181818;stroke-width:1.0;"/></g><!--link CartProxy to Cart--><g id="link_CartProxy_Cart"><path codeLine="94" d="M287.39,918.03 C279.78,940.09 273.2751,958.9375 265.6651,981.0175 " fill="none" id="CartProxy-to-Cart" style="stroke:#181818;stroke-width:1.0;"/><polygon fill="#181818" points="263.71,986.69,270.4243,979.4846,265.3392,981.9629,262.8609,976.8778,263.71,986.69" style="stroke:#181818;stroke-width:1.0;"/></g><!--reverse link MenuComponent to Menu--><g id="link_MenuComponent_Menu"><path codeLine="116" d="M999.0068,126.1697 C997.2468,152.4397 998.28,166.87 999.7,194.31 " fill="none" id="MenuComponent-backto-Menu" style="stroke:#181818;stroke-width:1.0;"/><polygon fill="none" points="1000.21,108.21,993.0202,125.7687,1004.9933,126.5708,1000.21,108.21" style="stroke:#181818;stroke-width:1.0;"/></g><!--reverse link Menu to MenuComponent--><g id="link_Menu_MenuComponent"><path codeLine="118" d="M1024.6494,182.3281 C1026.1594,154.8881 1025.32,134.48 1023.46,108.21 " fill="none" id="Menu-backto-MenuComponent" style="stroke:#181818;stroke-width:1.0;"/><polygon fill="none" points="1023.99,194.31,1028.3136,188.5388,1024.6494,182.3281,1020.3257,188.0993,1023.99,194.31" style="stroke:#181818;stroke-width:1.0;"/></g><!--reverse link MenuComponent to FoodItem--><g id="link_MenuComponent_FoodItem"><path codeLine="117" d="M1066.0347,121.8504 C1091.0647,150.9204 1110.81,173.87 1135.82,202.92 " fill="none" id="MenuComponent-backto-FoodItem" style="stroke:#181818;stroke-width:1.0;"/><polygon fill="none" points="1054.29,108.21,1061.4879,125.7653,1070.5815,117.9355,1054.29,108.21" style="stroke:#181818;stroke-width:1.0;"/></g><!--reverse link Status to OrderStatus--><g id="link_Status_OrderStatus"><path codeLine="158" d="M1086.4044,907.9551 C1071.5644,940.3551 1058.2,969.52 1042.34,1004.14 " fill="none" id="Status-backto-OrderStatus" style="stroke:#181818;stroke-width:1.0;stroke-dasharray:7.0,7.0;"/><polygon fill="none" points="1093.9,891.59,1080.9494,905.4565,1091.8594,910.4536,1093.9,891.59" style="stroke:#181818;stroke-width:1.0;"/></g><!--reverse link OrderStatus to Placed--><g id="link_OrderStatus_Placed"><path codeLine="159" d="M934.375,1084.4158 C859.985,1109.3758 754.46,1145.24 649.5,1183 C643.86,1185.03 638.02,1187.16 632.17,1189.32 " fill="none" id="OrderStatus-backto-Placed" style="stroke:#181818;stroke-width:1.0;"/><polygon fill="none" points="951.44,1078.69,932.4664,1078.7275,936.2836,1090.1042,951.44,1078.69" style="stroke:#181818;stroke-width:1.0;"/></g><!--reverse link OrderStatus to Confirmed--><g id="link_OrderStatus_Confirmed"><path codeLine="160" d="M935.5873,1104.52 C888.9773,1131.47 843.62,1157.69 800.01,1182.91 " fill="none" id="OrderStatus-backto-Confirmed" style="stroke:#181818;stroke-width:1.0;"/><polygon fill="none" points="951.17,1095.51,932.584,1099.3257,938.5906,1109.7142,951.17,1095.51" style="stroke:#181818;stroke-width:1.0;"/></g><!--reverse link OrderStatus to Preparing--><g id="link_OrderStatus_Preparing"><path codeLine="161" d="M982.4033,1121.5347 C968.1733,1146.6747 960.2,1160.76 947.7,1182.84 " fill="none" id="OrderStatus-backto-Preparing" style="stroke:#181818;stroke-width:1.0;"/><polygon fill="none" points="991.27,1105.87,977.1818,1118.5791,987.6249,1124.4902,991.27,1105.87" style="stroke:#181818;stroke-width:1.0;"/></g><!--reverse link OrderStatus to ReadyForDelivery--><g id="link_OrderStatus_ReadyForDelivery"><path codeLine="162" d="M1056.5967,1121.5347 C1070.8267,1146.6747 1078.8,1160.76 1091.3,1182.84 " fill="none" id="OrderStatus-backto-ReadyForDelivery" style="stroke:#181818;stroke-width:1.0;"/><polygon fill="none" points="1047.73,1105.87,1051.3751,1124.4902,1061.8182,1118.5791,1047.73,1105.87" style="stroke:#181818;stroke-width:1.0;"/></g><!--reverse link OrderStatus to OutForDelivery--><g id="link_OrderStatus_OutForDelivery"><path codeLine="163" d="M1103.2343,1102.8763 C1151.6343,1129.9863 1200.26,1157.2 1246.09,1182.86 " fill="none" id="OrderStatus-backto-OutForDelivery" style="stroke:#181818;stroke-width:1.0;"/><polygon fill="none" points="1087.53,1094.08,1100.3022,1108.1111,1106.1664,1097.6416,1087.53,1094.08" style="stroke:#181818;stroke-width:1.0;"/></g><!--reverse link OrderStatus to Delivered--><g id="link_OrderStatus_Delivered"><path codeLine="164" d="M1104.857,1083.7085 C1182.227,1108.8785 1295,1145.73 1406.5,1183 C1412.47,1184.99 1418.64,1187.07 1424.85,1189.17 " fill="none" id="OrderStatus-backto-Delivered" style="stroke:#181818;stroke-width:1.0;"/><polygon fill="none" points="1087.74,1078.14,1103.0008,1089.4142,1106.7132,1078.0028,1087.74,1078.14" style="stroke:#181818;stroke-width:1.0;"/></g><!--reverse link PaymentAdapter to CashPayment--><g id="link_PaymentAdapter_CashPayment"><path codeLine="192" d="M1587.3172,92.6927 C1546.7572,124.8027 1486.66,172.4 1436.71,211.95 " fill="none" id="PaymentAdapter-backto-CashPayment" style="stroke:#181818;stroke-width:1.0;stroke-dasharray:7.0,7.0;"/><polygon fill="none" points="1601.43,81.52,1583.593,87.9884,1591.0414,97.3969,1601.43,81.52" style="stroke:#181818;stroke-width:1.0;"/></g><!--reverse link PaymentAdapter to VisaPayment--><g id="link_PaymentAdapter_VisaPayment"><path codeLine="193" d="M1630.5,99.52 C1630.5,129.23 1630.5,163.73 1630.5,202.74 " fill="none" id="PaymentAdapter-backto-VisaPayment" style="stroke:#181818;stroke-width:1.0;stroke-dasharray:7.0,7.0;"/><polygon fill="none" points="1630.5,81.52,1624.5,99.52,1636.5,99.52,1630.5,81.52" style="stroke:#181818;stroke-width:1.0;"/></g><!--reverse link PaymentAdapter to WalletPayment--><g id="link_PaymentAdapter_WalletPayment"><path codeLine="194" d="M1673.6816,92.6942 C1711.2016,122.4042 1763.39,163.73 1812.66,202.74 " fill="none" id="PaymentAdapter-backto-WalletPayment" style="stroke:#181818;stroke-width:1.0;stroke-dasharray:7.0,7.0;"/><polygon fill="none" points="1659.57,81.52,1669.9569,97.3981,1677.4063,87.9903,1659.57,81.52" style="stroke:#181818;stroke-width:1.0;"/></g><!--link Customer to ICart--><g id="link_Customer_ICart"><path codeLine="231" d="M543.47,513.97 C493.08,544.04 432.982,579.9049 384.362,608.9249 " fill="none" id="Customer-to-ICart" style="stroke:#181818;stroke-width:1.0;"/><polygon fill="#181818" points="379.21,612,388.9882,610.822,383.5034,609.4374,384.888,603.9526,379.21,612" style="stroke:#181818;stroke-width:1.0;"/></g><!--link Customer to OrderFacade--><g id="link_Customer_OrderFacade"><path codeLine="232" d="M620.5,526.03 C620.5,547.96 620.5,566.92 620.5,588.86 " fill="none" id="Customer-to-OrderFacade" style="stroke:#181818;stroke-width:1.0;"/><polygon fill="#181818" points="620.5,594.86,624.5,585.86,620.5,589.86,616.5,585.86,620.5,594.86" style="stroke:#181818;stroke-width:1.0;"/></g><!--link OrderFacade to CustomerOrder--><g id="link_OrderFacade_CustomerOrder"><path codeLine="233" d="M727.02,713.14 C759.15,731.52 794.18,752.42 825.5,773 C831.22,776.76 832.1303,777.2855 837.9603,781.3555 " fill="none" id="OrderFacade-to-CustomerOrder" style="stroke:#181818;stroke-width:1.0;"/><polygon fill="#181818" points="842.88,784.79,837.7901,776.3584,838.7802,781.9279,833.2107,782.918,842.88,784.79" style="stroke:#181818;stroke-width:1.0;"/></g><!--link OrderFacade to PaymentFactory--><g id="link_OrderFacade_PaymentFactory"><path codeLine="234" d="M620.5,713.21 C620.5,747.14 620.5,782.65 620.5,810.77 " fill="none" id="OrderFacade-to-PaymentFactory" style="stroke:#181818;stroke-width:1.0;"/><polygon fill="#181818" points="620.5,816.77,624.5,807.77,620.5,811.77,616.5,807.77,620.5,816.77" style="stroke:#181818;stroke-width:1.0;"/></g><!--link CustomerOrder to OrderStatus--><g id="link_CustomerOrder_OrderStatus"><path codeLine="235" d="M962.02,927.17 C973.7,952.93 983.9543,975.5546 994.4543,998.7346 " fill="none" id="CustomerOrder-to-OrderStatus" style="stroke:#181818;stroke-width:1.0;"/><polygon fill="#181818" points="996.93,1004.2,996.8601,994.3514,994.8669,999.6455,989.5728,997.6523,996.93,1004.2" style="stroke:#181818;stroke-width:1.0;"/></g><!--link Restaurant to RestaurantOrder--><g id="link_Restaurant_RestaurantOrder"><path codeLine="236" d="M1039.5,535.05 C1039.5,560.9 1039.5,583.63 1039.5,606.26 " fill="none" id="Restaurant-to-RestaurantOrder" style="stroke:#181818;stroke-width:1.0;"/><polygon fill="#181818" points="1039.5,612.26,1043.5,603.26,1039.5,607.26,1035.5,603.26,1039.5,612.26" style="stroke:#181818;stroke-width:1.0;"/></g><!--link Delivery to DeliveryOrder--><g id="link_Delivery_DeliveryOrder"><path codeLine="237" d="M851.81,526.03 C851.97,554.11 852.1068,581.1401 852.2468,606.4701 " fill="none" id="Delivery-to-DeliveryOrder" style="stroke:#181818;stroke-width:1.0;"/><polygon fill="#181818" points="852.28,612.47,856.2302,603.448,852.2524,607.4701,848.2303,603.4922,852.28,612.47" style="stroke:#181818;stroke-width:1.0;"/></g><!--link UserFactory to DatabaseConnection--><g id="link_UserFactory_DatabaseConnection"><path codeLine="238" d="M691.58,99.17 C676.79,129.39 659.1596,165.3918 643.4096,197.5418 " fill="none" id="UserFactory-to-DatabaseConnection" style="stroke:#181818;stroke-width:1.0;"/><polygon fill="#181818" points="640.77,202.93,648.3215,196.6075,642.9697,198.4399,641.1373,193.088,640.77,202.93" style="stroke:#181818;stroke-width:1.0;"/></g><!--link DatabaseConnection to DatabaseConnection--><g id="link_DatabaseConnection_DatabaseConnection"><path codeLine="239" d="M738.61,219.27 C759.24,224 773.5,235.41 773.5,253.5 C773.5,271.59 765.0883,281.6591 744.4583,286.3891 " fill="none" id="DatabaseConnection-to-DatabaseConnection" style="stroke:#181818;stroke-width:1.0;"/><polygon fill="#181818" points="738.61,287.73,748.2763,289.6175,743.4835,286.6126,746.4885,281.8199,738.61,287.73" style="stroke:#181818;stroke-width:1.0;"/></g><!--SRC=[hLTBZ-Cs3BxxL_ZM31PPz1ni2xY9PsiWBzYUsSvHiJc9iRPbI79sqcx_Uod93ybMjWEqkSGYAOhy-135lnPrGnYf_Amad0T2iEBK2eWoMYV5d-3_xF51f27PLtA6HDnAy1baWjJd4Wm1VY4v_LRKP_-Lb1myxoV_b-dF3_TFksHEzw1kAp-cgFelp_VNJqbws8KnVcx2RVGSnY_u6OT96Zp5mJxr_lRqZYEvLL2B7OWBpVNM8FaT_vwZ9C2_By5s6ofnbp59jF-CxCFUOP12nDyGGKw4mvhMDRfSq5eTiYngZlvdi798I7ush1B4j3wlVFsFl0zd456tVV7WL737tASaZ1D_yHYiqqFyyk0mcfouO2GJEfx-4mVMsPkl_A8MyhCc5HZcBA4YHMaIcWkjBGc6OLcfu4ZpItekQcduYIA5r1sDja8IhxJ8fVtQW7NB1Qrw8qYUC-3SLFsDb2M8tqYfmSnfUzAdD2N9uC1oO8DMIIMt-I4RA8ihi9i-v0gN8YiXlJMM3-IANfAJTCImcsGPD69sJAurslJXl1WmU2qZjT0dic6zdq1Rqep8W5fW8aNcm-WgvifhmQgvimomi61cXOhgf-_BvG2lGUh1C4YZlRq7alU8QK9xq7ZRD9G9o6MG-HZhZ04H8CKNOnAWAPBIcz8hMYv_rNHdxgw3EFKNn_ZmXpDnCJU1lMB8_MXDc0Rs0-PB9A0oCM5GqIjCgLXHAHMabBGErp45UtNB3B-YiGw4t75aXPrt_zkPHqRVRds2a5AILegXof5BfBRqV8OygksK_6y6QFW-VV_uKHysMIkhlD4-6JGbvmpQ3hkrlrWVTiT34gNXEphE3hlocbODTf2-FARzffb2ZeweCBYGbFgq6cpphH6z77Z6YcPINHAzENBp4dwaLA6iLR_ArQWQQnREcD6JdksmqVPM5PiakUZzYOhdqqvo4FAyEpTK6gJX3-ib4KIqN1TC3MzYaYAo9KbIvmeQFOcOQY-6aYLNtvDMzZxLMkDHjcvz6IzL6y_Jmb0sLedkUxrerY_TqaVL3ULqeHMhfUgkMbu6psZH9ByzKcPV3KnItTeFhPY98n1Cz2JtjexRkv3towbqXwygGmDmpmHVfOd6RauVi79iwO6PiwOmp2Lil-VymS7UOyqqBmyzpnIY8ALcofmmdRmtVAKnvlRdbnzcTpVVwOFaxKygsjQYBq9Z2Z6QBx-Osp3i6Q0JUM1jVR_2vu8JIo5U9Fc-hKx0h3dghIdO3QSvgsxUTyGNDGPPX-Z9o6XB9yUGz2_AEuL1JXgXfW5r2mpmEFc6jqw-PUfGd7evJOkElAZKUBwof_M7OTtfbnOxCmK7tc0JtftHLQxXqII7hZTOrgmcreqzRX2malh-z9b9_ClPFEOo-H1lvAn-p-H-S5EwjD5KVXhXLkj9DkcPPPR7dJjsrIbxowmjKSLqJf2y2pxVO2pOUoEkOU4uvuvczaFg_QdSKD2rnrimUmVq4xUfnebh76w3D3hiNT0EZmqvrAYvnoOPUUAPEQDc83CWC-uaWUpe3Qexu8tdWMHDeFI6EqOoBP1cqxJZPUXuZxeb_m40]--></g></svg>